<?xml version="1.0" encoding="utf-8"?>
<!-- Generator: Adobe Illustrator 22.1.0, SVG Export Plug-In . SVG Version: 6.00 Build 0)  -->
<svg version="1.1" id="Layer_1" xmlns="http://www.w3.org/2000/svg" xmlns:xlink="http://www.w3.org/1999/xlink" x="0px" y="0px"
	 width="350px" height="100px" viewBox="0 0 350 100" style="enable-background:new 0 0 350 100;" xml:space="preserve">
<style type="text/css">
	.st0{fill:#FFFFFF;}
	.st1{fill:#F49020;}
	.st2{fill:url(#SVGID_1_);}
	.st3{fill:url(#SVGID_2_);}
	.st4{opacity:0.4;}
	.st5{fill:#408941;}
	.st6{fill:url(#SVGID_3_);}
	.st7{fill:url(#SVGID_4_);}
	.st8{fill:url(#SVGID_5_);}
	.st9{fill:url(#SVGID_6_);}
	.st10{fill:url(#SVGID_7_);}
	.st11{fill:url(#SVGID_8_);}
	.st12{fill:url(#SVGID_9_);}
	.st13{fill:url(#SVGID_10_);}
	.st14{fill:url(#SVGID_11_);}
	.st15{fill:url(#SVGID_12_);}
	.st16{fill:#A4D079;}
</style>
<g>
	<path class="st0" d="M92.5,12.2c1.1,0,2.6,0.1,4.5,0.1c1.8,0,3.7,0.1,5.6,0.1s3.8,0,5.6-0.1c1.8,0,3-0.1,3.8-0.1
		c5.9,0,10.3,1.1,13.2,3.2s4.3,4.9,4.3,8.3c0,1.4-0.3,2.9-0.9,4.4c-0.6,1.5-1.6,2.9-3,4.2s-3.3,2.4-5.7,3.2
		c-2.4,0.8-5.5,1.2-9.2,1.2h-6.2v-1.2h5.6c2,0,3.5-0.5,4.5-1.6c1-1,1.7-2.4,2.1-4.1s0.6-3.5,0.6-5.5c0-3.7-0.4-6.4-1.3-8.3
		c-0.8-1.8-2.3-2.7-4.3-2.7c-1.3,0-2.2,0.3-2.6,1s-0.6,2-0.6,4v28.3c0,1.6,0.2,2.8,0.5,3.5c0.3,0.8,1,1.3,1.9,1.5s2.3,0.3,4.1,0.3
		v1.3c-1.3,0-3-0.1-5.2-0.1c-2.1,0-4.4-0.1-6.8-0.1c-1.8,0-3.6,0-5.4,0.1c-1.8,0-3.5,0.1-5.1,0.1V52c1.2-0.1,2.1-0.2,2.7-0.5
		c0.6-0.2,1-0.7,1.2-1.4s0.3-1.7,0.3-3.1V18.4c0-1.4-0.1-2.5-0.3-3.2c-0.2-0.7-0.6-1.1-1.2-1.4c-0.6-0.3-1.5-0.4-2.6-0.4v-1.2H92.5z
		"/>
	<path class="st0" d="M154,11.4c4.4,0,8.2,0.8,11.5,2.5s5.9,4.1,7.7,7.2s2.7,6.9,2.7,11.4c0,4.3-0.9,8.1-2.8,11.4
		c-1.9,3.3-4.5,5.8-7.8,7.6s-7.1,2.7-11.4,2.7c-4.4,0-8.2-0.8-11.5-2.5s-5.9-4.1-7.7-7.2c-1.8-3.1-2.7-6.9-2.7-11.3
		c0-4.3,0.9-8.1,2.8-11.4c1.9-3.3,4.5-5.8,7.8-7.6C145.9,12.3,149.7,11.4,154,11.4z M153.8,12.5c-1.9,0-3.6,0.9-5.1,2.6
		c-1.4,1.7-2.5,4.2-3.3,7.2c-0.8,3.1-1.2,6.6-1.2,10.6c0,4.1,0.4,7.7,1.3,10.7c0.9,3,2.1,5.4,3.6,7s3.2,2.5,5,2.5
		c1.9,0,3.6-0.9,5.1-2.6c1.4-1.7,2.5-4.2,3.3-7.2c0.8-3.1,1.2-6.6,1.2-10.6c0-4.1-0.4-7.7-1.3-10.8c-0.9-3-2.1-5.4-3.6-7
		C157.3,13.3,155.6,12.5,153.8,12.5z"/>
	<path class="st0" d="M202.1,11.4c4.4,0,8.2,0.8,11.5,2.5s5.9,4.1,7.7,7.2S224,28,224,32.5c0,4.3-0.9,8.1-2.8,11.4
		c-1.9,3.3-4.4,5.8-7.8,7.6c-3.3,1.8-7.1,2.7-11.4,2.7c-4.4,0-8.2-0.8-11.5-2.5s-5.9-4.1-7.7-7.2c-1.8-3.1-2.7-6.9-2.7-11.3
		c0-4.3,0.9-8.1,2.8-11.4c1.9-3.3,4.5-5.8,7.8-7.6C194,12.3,197.8,11.4,202.1,11.4z M201.9,12.5c-1.9,0-3.6,0.9-5.1,2.6
		c-1.4,1.7-2.5,4.2-3.3,7.2c-0.8,3.1-1.2,6.6-1.2,10.6c0,4.1,0.4,7.7,1.3,10.7c0.9,3,2.1,5.4,3.6,7s3.2,2.5,5,2.5
		c1.9,0,3.6-0.9,5.1-2.6c1.4-1.7,2.5-4.2,3.3-7.2c0.8-3.1,1.2-6.6,1.2-10.6c0-4.1-0.4-7.7-1.3-10.8c-0.9-3-2.1-5.4-3.6-7
		C205.4,13.3,203.7,12.5,201.9,12.5z"/>
	<path class="st0" d="M266.1,12.2v1.2c-0.9,0.4-1.9,1.3-2.9,2.5c-1,1.3-2,3.1-2.9,5.6L249,53.4c-0.5,0-1-0.1-1.5-0.1s-1.1,0-1.6,0
		s-1,0-1.5,0s-1,0-1.5,0.1l-15.2-36.3c-0.5-1.4-1.1-2.3-1.7-2.9c-0.6-0.5-1.2-0.8-1.7-0.9v-1.2c1.4,0,3,0.1,4.9,0.1s3.8,0.1,5.7,0.1
		c2,0,3.8,0,5.6-0.1c1.7,0,3.1-0.1,4.2-0.1v1.2c-1.2,0-2.2,0.2-2.9,0.4s-1.1,0.7-1.2,1.4c-0.1,0.7,0.1,1.7,0.7,3.1L251.8,44
		l-1.4,1.8l6.6-18.6c1.2-3.4,1.8-6.1,1.9-8.1s-0.3-3.4-1.2-4.3c-0.9-0.9-2.1-1.4-3.6-1.4v-1.2c1.5,0,2.8,0.1,3.9,0.1
		s2.4,0.1,3.7,0.1c0.8,0,1.6,0,2.4-0.1C264.8,12.3,265.5,12.3,266.1,12.2z"/>
	<path class="st0" d="M287.3,12.2l14.1,36.3c0.5,1.3,1.1,2.3,1.7,2.8c0.6,0.6,1.2,0.9,1.7,0.9v1.2c-1.4-0.1-3-0.1-4.9-0.1
		s-3.8,0-5.7,0c-2,0-3.8,0-5.6,0c-1.7,0-3.1,0.1-4.2,0.1v-1.2c2-0.1,3.2-0.4,3.8-1c0.5-0.6,0.4-1.9-0.4-3.9l-9.3-25.8l1.2-2l-8,20.9
		c-1,2.5-1.6,4.5-1.8,6.1c-0.2,1.5-0.1,2.7,0.3,3.5s1,1.4,1.9,1.7s1.9,0.5,3,0.5v1.2c-1.4-0.1-2.7-0.1-3.9-0.1c-1.1,0-2.4,0-3.8,0
		c-0.7,0-1.5,0-2.4,0c-0.8,0-1.5,0.1-2.1,0.1v-1.2c0.9-0.2,1.8-0.7,2.6-1.7c0.9-1,1.8-2.7,2.7-5.1l12.9-33.2
		c0.9,0.1,1.9,0.1,3.1,0.1C285.4,12.4,286.4,12.3,287.3,12.2z M289.3,36.7v1.2H272l0.6-1.2H289.3z"/>
	<path class="st0" d="M306,12.2c1.1,0,2.6,0.1,4.5,0.1c1.8,0,3.7,0.1,5.6,0.1s3.8,0,5.6-0.1c1.8,0,3-0.1,3.8-0.1
		c4,0,7.2,0.4,9.8,1.1c2.6,0.7,4.5,1.9,5.8,3.3s1.9,3.4,1.9,5.7c0,1.4-0.3,2.8-0.9,4.2c-0.6,1.4-1.6,2.6-3,3.7s-3.3,2-5.7,2.6
		c-2.4,0.6-5.5,1-9.2,1h-5.6v-1.2h5c2,0,3.5-0.4,4.5-1.3c1-0.9,1.7-2,2.1-3.5s0.6-3.1,0.6-4.9c0-3.1-0.4-5.4-1.3-7.1
		c-0.8-1.7-2.3-2.5-4.3-2.5c-1.3,0-2.2,0.3-2.6,1s-0.6,2-0.6,4v28.9c0,1.4,0.1,2.4,0.3,3.1c0.2,0.7,0.6,1.2,1.2,1.4s1.5,0.4,2.6,0.5
		v1.2c-1.1-0.1-2.6-0.1-4.3-0.1c-1.8,0-3.6,0-5.4,0c-2.1,0-4.1,0-5.9,0s-3.3,0.1-4.5,0.1v-1.2c1.2-0.1,2.1-0.2,2.7-0.5
		c0.6-0.2,1-0.7,1.2-1.4s0.3-1.7,0.3-3.1V18.4c0-1.4-0.1-2.5-0.3-3.2c-0.2-0.7-0.6-1.1-1.2-1.4c-0.6-0.3-1.5-0.4-2.6-0.4v-1.2H306z
		 M318.2,32.9c1.4,0,2.7,0.1,4,0.2c1.2,0.1,2.4,0.2,3.4,0.3s1.9,0.2,2.7,0.2c4.1,0.2,7.3,0.9,9.3,2.2c2.1,1.2,3.3,3.1,3.8,5.5l1.2,6
		c0.3,1.4,0.7,2.4,1,3c0.4,0.5,0.9,0.8,1.6,0.8c0.4,0,0.7-0.1,1-0.2c0.3-0.1,0.5-0.3,0.8-0.6l0.8,0.8c-1.2,1.2-2.5,2-3.9,2.5
		c-1.4,0.4-3,0.7-4.8,0.7c-2.5,0-4.6-0.5-6.1-1.4c-1.6-0.9-2.5-2.5-2.9-4.9l-0.9-5.8c-0.2-1.6-0.5-3-0.9-4.2
		c-0.3-1.2-0.8-2.2-1.4-2.9s-1.4-1.1-2.4-1.1h-6.3L318.2,32.9z"/>
</g>
<g>
	<g>
		<path class="st0" d="M92.5,68c0.6,0,1.3,0,2.2,0.1c0.9,0,1.8,0,2.7,0c1,0,2,0,3,0s1.6,0,2,0c2.6,0,4.6,0.5,5.9,1.4s2,2.1,2,3.6
			c0,0.7-0.2,1.5-0.7,2.3c-0.4,0.8-1.1,1.4-2.1,2c-0.9,0.6-2.1,1-3.6,1.3v0.1c2,0.1,3.6,0.5,4.7,1.1c1.2,0.6,2,1.3,2.5,2.1
			c0.5,0.8,0.8,1.6,0.8,2.5c0,1.3-0.3,2.5-1,3.4s-1.7,1.6-3,2.1s-2.9,0.7-4.7,0.7c-0.5,0-1.2,0-2.2,0s-2.1,0-3.5,0
			c-0.9,0-1.8,0-2.7,0c-0.9,0-1.6,0-2.2,0.1v-0.6c0.7,0,1.2-0.1,1.5-0.3c0.3-0.1,0.6-0.4,0.7-0.8s0.2-1,0.2-1.7v-16
			c0-0.8-0.1-1.4-0.2-1.7c-0.1-0.4-0.3-0.6-0.7-0.8c-0.3-0.1-0.9-0.2-1.5-0.2V68H92.5z M101.9,68.6c-0.8,0-1.4,0.2-1.6,0.5
			c-0.2,0.4-0.4,1.1-0.4,2.2v15.8c0,0.7,0.1,1.3,0.2,1.7c0.1,0.4,0.3,0.6,0.6,0.8c0.3,0.1,0.8,0.2,1.4,0.2c1.5,0,2.6-0.5,3.4-1.4
			c0.7-1,1.1-2.3,1.1-4.1c0-1.6-0.4-2.9-1.2-3.8c-0.8-0.9-2.2-1.3-4.1-1.3h-2.7v-0.5h2.7c1,0,1.8-0.2,2.3-0.7s0.9-1.1,1.1-1.9
			s0.3-1.6,0.3-2.6c0-1.6-0.2-2.7-0.7-3.5C103.8,69,103,68.6,101.9,68.6z"/>
		<path class="st0" d="M117.7,90.7c-1,0-1.7-0.2-2.4-0.5c-0.6-0.4-1.1-0.8-1.4-1.4s-0.4-1.3-0.4-2c0-0.9,0.2-1.7,0.6-2.2
			c0.4-0.6,0.9-1,1.6-1.4s1.4-0.7,2.1-0.9c0.7-0.2,1.4-0.5,2.1-0.7s1.2-0.5,1.6-0.8s0.6-0.7,0.6-1.2v-2.5c0-0.6-0.1-1-0.3-1.5
			c-0.2-0.4-0.5-0.8-0.8-1c-0.4-0.2-0.9-0.3-1.4-0.3c-0.4,0-0.8,0.1-1.3,0.2c-0.4,0.1-0.8,0.3-1,0.6c0.6,0.2,1.1,0.5,1.4,1
			c0.3,0.4,0.5,0.9,0.5,1.5c0,0.7-0.2,1.3-0.7,1.7c-0.5,0.4-1.1,0.6-1.8,0.6c-0.8,0-1.3-0.2-1.7-0.7c-0.4-0.5-0.6-1.1-0.6-1.7
			s0.2-1.1,0.5-1.5s0.7-0.8,1.3-1.1c0.6-0.3,1.3-0.6,2.1-0.8c0.8-0.2,1.7-0.3,2.7-0.3s1.9,0.1,2.6,0.3c0.8,0.2,1.4,0.6,2,1.1
			c0.5,0.5,0.8,1.1,1,1.8c0.1,0.7,0.2,1.6,0.2,2.7v8.6c0,0.5,0.1,0.9,0.2,1.1s0.3,0.3,0.5,0.3s0.4-0.1,0.6-0.2
			c0.2-0.1,0.4-0.2,0.6-0.4l0.3,0.5c-0.4,0.4-1,0.7-1.5,0.9c-0.6,0.2-1.2,0.3-2,0.3s-1.4-0.1-1.9-0.3c-0.5-0.2-0.8-0.5-1-0.9
			s-0.3-0.8-0.3-1.3c-0.5,0.8-1.1,1.4-1.8,1.9C119.6,90.5,118.8,90.7,117.7,90.7z M120,88.7c0.4,0,0.8-0.1,1.2-0.3
			c0.3-0.2,0.7-0.5,1-1v-6.5c-0.2,0.3-0.5,0.6-0.8,0.9s-0.7,0.5-1.1,0.8s-0.7,0.6-1.1,0.9c-0.3,0.3-0.6,0.7-0.8,1.2
			c-0.2,0.5-0.3,1-0.3,1.7c0,0.8,0.2,1.4,0.5,1.8C118.9,88.5,119.4,88.7,120,88.7z"/>
		<path class="st0" d="M137.9,73.6c0.8,0,1.6,0.1,2.3,0.3c0.7,0.2,1.3,0.4,1.7,0.7c0.6,0.3,1,0.8,1.3,1.3s0.5,1.1,0.5,1.7
			c0,0.7-0.2,1.4-0.7,1.8c-0.5,0.5-1.1,0.7-1.8,0.7s-1.3-0.2-1.8-0.6c-0.4-0.4-0.7-1-0.7-1.7s0.2-1.2,0.6-1.7
			c0.4-0.5,0.9-0.8,1.5-0.9c-0.2-0.2-0.4-0.4-0.8-0.5c-0.3-0.1-0.7-0.2-1.1-0.2c-0.7,0-1.2,0.2-1.7,0.6s-0.9,0.9-1.3,1.6
			c-0.3,0.7-0.6,1.5-0.8,2.4s-0.3,1.9-0.3,3c0,1.6,0.2,2.9,0.6,3.8c0.4,0.9,0.9,1.6,1.6,2c0.6,0.4,1.3,0.6,2,0.6
			c0.4,0,0.8-0.1,1.3-0.2s1-0.4,1.5-0.8s1-0.9,1.4-1.6l0.5,0.2c-0.2,0.8-0.6,1.6-1.1,2.4s-1.2,1.4-2.1,1.9c-0.8,0.5-1.9,0.7-3.1,0.7
			c-1.4,0-2.6-0.3-3.7-0.9c-1.1-0.6-2-1.5-2.7-2.8s-1-2.9-1-4.9c0-1.9,0.3-3.5,1-4.8s1.6-2.3,2.8-2.9C135,74,136.4,73.6,137.9,73.6z
			"/>
		<path class="st0" d="M151.6,65.6v21.9c0,0.9,0.1,1.5,0.4,1.8c0.3,0.3,0.8,0.5,1.5,0.5v0.7c-0.4,0-1,0-1.8-0.1c-0.8,0-1.6,0-2.4,0
			c-0.8,0-1.7,0-2.5,0s-1.5,0.1-1.9,0.1v-0.7c0.7,0,1.3-0.2,1.6-0.5s0.5-0.9,0.5-1.8V69.4c0-1-0.1-1.7-0.4-2.1
			c-0.3-0.5-0.8-0.7-1.6-0.7V66c0.7,0.1,1.3,0.1,2,0.1c0.9,0,1.7,0,2.5-0.1C150.3,65.9,151,65.8,151.6,65.6z M162,74.1v0.6
			c-0.7,0.1-1.3,0.4-2,0.8s-1.3,1-2,1.6l-2.4,2.5l0.3-0.6l5.4,9.1c0.2,0.4,0.5,0.7,0.7,1c0.3,0.3,0.6,0.5,0.9,0.6v0.7
			c-0.3,0-0.8,0-1.4-0.1c-0.6,0-1.3,0-1.9,0c-0.8,0-1.6,0-2.4,0c-0.8,0-1.4,0.1-1.7,0.1v-0.7c0.4,0,0.7-0.1,0.9-0.3
			c0.1-0.2,0.1-0.5-0.1-0.8l-3.1-5.7c-0.3-0.4-0.5-0.7-0.7-0.8c-0.2-0.1-0.6-0.2-1-0.2v-0.6c0.4,0,0.8-0.1,1.2-0.2
			c0.3-0.1,0.6-0.3,0.9-0.6l2.4-2.4c0.7-0.7,1.1-1.3,1.1-1.8s-0.2-1-0.7-1.3s-1.1-0.5-1.8-0.5v-0.6c0.6,0,1.2,0,1.9,0.1
			c0.7,0,1.3,0,1.8,0c0.4,0,0.9,0,1.4,0s0.9,0,1.3,0C161.4,74.1,161.7,74.1,162,74.1z"/>
		<path class="st0" d="M171.3,74.1v0.7c-0.5,0-0.9,0-1.2,0.1s-0.6,0.2-0.7,0.5c-0.1,0.3-0.1,0.7,0.1,1.2l3,9.4l-0.4,0.4l3.7-12.4
			l0.6,0.3l-4.9,16.2c-0.3,0-0.7,0-1,0s-0.7,0-1.1,0l-5-14c-0.3-0.8-0.6-1.4-1-1.5c-0.3-0.2-0.6-0.3-0.9-0.3V74
			c0.7,0.1,1.4,0.1,2.1,0.1c0.7,0,1.5,0,2.4,0c0.7,0,1.4,0,2.1-0.1C169.9,74.2,170.6,74.1,171.3,74.1z M187.8,74.1v0.6
			c-0.4,0.1-0.8,0.3-1.1,0.7c-0.4,0.4-0.7,1-1,2l-4.2,13.1c-0.3,0-0.7,0-1,0s-0.7,0-1,0L175,78.3l0.9-4.3c0.4,0,0.8,0,1.2,0
			s0.8,0,1.2,0l4.4,12.8l-0.4-0.3l2.1-6.7c0.4-1.2,0.5-2.1,0.4-2.8c-0.1-0.7-0.3-1.3-0.8-1.6c-0.4-0.4-1-0.6-1.7-0.6v-0.6
			c0.3,0,0.7,0,1.1,0c0.4,0,0.8,0,1.2,0s0.7,0,1,0c0.4,0,0.9,0,1.3,0C187.2,74.1,187.6,74.1,187.8,74.1z"/>
		<path class="st0" d="M192.8,90.7c-1,0-1.7-0.2-2.4-0.5c-0.6-0.4-1.1-0.8-1.4-1.4c-0.3-0.6-0.4-1.3-0.4-2c0-0.9,0.2-1.7,0.6-2.2
			c0.4-0.6,0.9-1,1.6-1.4c0.7-0.4,1.4-0.7,2.1-0.9c0.7-0.2,1.4-0.5,2.1-0.7c0.7-0.2,1.2-0.5,1.6-0.8c0.4-0.3,0.6-0.7,0.6-1.2v-2.5
			c0-0.6-0.1-1-0.3-1.5c-0.2-0.4-0.5-0.8-0.8-1c-0.4-0.2-0.9-0.3-1.4-0.3c-0.4,0-0.8,0.1-1.3,0.2c-0.4,0.1-0.8,0.3-1,0.6
			c0.6,0.2,1.1,0.5,1.4,1c0.3,0.4,0.5,0.9,0.5,1.5c0,0.7-0.2,1.3-0.7,1.7c-0.5,0.4-1.1,0.6-1.8,0.6c-0.8,0-1.3-0.2-1.7-0.7
			s-0.6-1.1-0.6-1.7s0.2-1.1,0.5-1.5s0.7-0.8,1.3-1.1c0.6-0.3,1.3-0.6,2.1-0.8c0.8-0.2,1.7-0.3,2.7-0.3s1.9,0.1,2.6,0.3
			c0.8,0.2,1.4,0.6,2,1.1c0.5,0.5,0.8,1.1,1,1.8c0.1,0.7,0.2,1.6,0.2,2.7v8.6c0,0.5,0.1,0.9,0.2,1.1c0.1,0.2,0.3,0.3,0.5,0.3
			s0.4-0.1,0.6-0.2c0.2-0.1,0.4-0.2,0.6-0.4l0.3,0.5c-0.4,0.4-1,0.7-1.5,0.9c-0.6,0.2-1.2,0.3-2,0.3s-1.4-0.1-1.9-0.3
			c-0.5-0.2-0.8-0.5-1-0.9s-0.3-0.8-0.3-1.3c-0.5,0.8-1.1,1.4-1.8,1.9C194.7,90.5,193.8,90.7,192.8,90.7z M195.1,88.7
			c0.4,0,0.8-0.1,1.2-0.3c0.3-0.2,0.7-0.5,1-1v-6.5c-0.2,0.3-0.5,0.6-0.8,0.9s-0.7,0.5-1.1,0.8c-0.4,0.3-0.7,0.6-1.1,0.9
			c-0.3,0.3-0.6,0.7-0.8,1.2s-0.3,1-0.3,1.7c0,0.8,0.2,1.4,0.5,1.8C194,88.5,194.5,88.7,195.1,88.7z"/>
		<path class="st0" d="M211.1,68.9v5.2h3.7v0.6h-3.7v12.8c0,0.6,0.1,1.1,0.3,1.4s0.6,0.4,1,0.4s0.8-0.1,1.1-0.4
			c0.4-0.3,0.7-0.8,1-1.5l0.5,0.3c-0.3,1-0.9,1.7-1.5,2.4c-0.7,0.6-1.6,0.9-2.8,0.9c-0.7,0-1.3-0.1-1.8-0.3c-0.5-0.2-1-0.4-1.3-0.8
			c-0.5-0.5-0.8-1-0.9-1.7c-0.2-0.7-0.2-1.6-0.2-2.7V74.7h-2.7v-0.6h2.7v-4.2c0.9,0,1.7-0.1,2.5-0.2
			C209.8,69.5,210.5,69.2,211.1,68.9z"/>
		<path class="st0" d="M223.9,73.6c1.9,0,3.3,0.6,4.4,1.7c1.1,1.1,1.6,2.9,1.6,5.4h-10.5l-0.1-0.6h6.5c0-1,0-2-0.2-2.9
			c-0.1-0.9-0.4-1.6-0.7-2.1s-0.7-0.8-1.3-0.8c-0.7,0-1.4,0.5-1.9,1.4s-0.8,2.5-0.9,4.6l0.1,0.2c0,0.3,0,0.5,0,0.8s0,0.6,0,0.9
			c0,1.5,0.2,2.6,0.6,3.6c0.4,0.9,0.9,1.6,1.6,2c0.6,0.4,1.3,0.6,1.9,0.6c0.4,0,0.9-0.1,1.4-0.2s1-0.4,1.4-0.8
			c0.5-0.4,0.9-0.9,1.4-1.6l0.6,0.2c-0.3,0.8-0.7,1.6-1.2,2.4c-0.6,0.8-1.3,1.4-2.1,1.9s-1.9,0.7-3.1,0.7c-1.4,0-2.7-0.3-3.8-0.9
			s-2-1.5-2.6-2.8s-0.9-2.8-0.9-4.8s0.3-3.6,1-4.9s1.6-2.3,2.8-2.9C221,74,222.4,73.6,223.9,73.6z"/>
		<path class="st0" d="M242.4,73.6c0.7,0,1.2,0.1,1.7,0.4c0.4,0.3,0.7,0.7,0.9,1.1s0.3,0.9,0.3,1.4c0,0.8-0.2,1.4-0.7,1.9
			s-1.1,0.7-1.8,0.7s-1.3-0.2-1.7-0.6s-0.6-0.9-0.6-1.5s0.1-1.1,0.4-1.5c0.3-0.4,0.6-0.7,1-1c-0.3-0.1-0.6-0.1-0.9,0
			c-0.4,0.1-0.8,0.2-1.1,0.5c-0.4,0.3-0.7,0.6-0.9,1c-0.3,0.4-0.5,0.8-0.6,1.3s-0.2,0.9-0.2,1.3V87c0,1,0.2,1.7,0.7,2.1
			s1.2,0.5,2.2,0.5v0.7c-0.5,0-1.2,0-2.1-0.1c-0.9,0-1.9,0-2.9,0c-0.8,0-1.7,0-2.6,0c-0.9,0-1.5,0.1-2,0.1v-0.7
			c0.7,0,1.3-0.2,1.6-0.5s0.5-0.9,0.5-1.8v-10c0-1-0.1-1.7-0.4-2.1c-0.3-0.5-0.8-0.7-1.6-0.7v-0.7c0.7,0.1,1.3,0.1,2,0.1
			c0.9,0,1.7,0,2.5-0.1s1.5-0.2,2.1-0.3v3c0.3-0.6,0.6-1.1,1-1.6s0.9-0.8,1.5-1.1C241.2,73.8,241.8,73.6,242.4,73.6z"/>
		<path class="st0" d="M265.2,67.6c1.4,0,2.5,0.2,3.4,0.6s1.7,0.9,2.4,1.4c0.4,0.3,0.7,0.4,1,0.1c0.2-0.2,0.4-0.8,0.5-1.7h0.7
			c0,0.8-0.1,1.8-0.1,3s0,2.7,0,4.7h-0.7c-0.1-1-0.2-1.8-0.4-2.5c-0.2-0.7-0.4-1.3-0.7-1.8c-0.3-0.5-0.7-1-1.3-1.4
			c-0.5-0.5-1.1-0.9-1.8-1.2c-0.7-0.3-1.4-0.4-2.2-0.4c-1.1,0-2.1,0.3-2.9,0.9s-1.5,1.4-2,2.5c-0.5,1-0.9,2.2-1.1,3.5
			s-0.3,2.7-0.3,4.1s0.1,2.8,0.4,4.1c0.2,1.3,0.6,2.5,1.1,3.5s1.2,1.8,2,2.4s1.8,0.9,2.9,0.9c0.7,0,1.4-0.1,2.1-0.4s1.3-0.7,1.8-1.2
			c0.8-0.6,1.4-1.4,1.7-2.4c0.3-0.9,0.5-2.2,0.7-3.8h0.7c0,2,0,3.6,0,4.9c0,1.2,0.1,2.3,0.1,3.1h-0.7c-0.1-0.9-0.2-1.5-0.4-1.7
			c-0.2-0.2-0.5-0.2-1,0.1c-0.8,0.6-1.6,1-2.5,1.4s-2,0.6-3.4,0.6c-2.2,0-4.2-0.5-5.9-1.4c-1.7-0.9-3-2.2-3.9-3.9
			c-0.9-1.7-1.4-3.8-1.4-6.2c0-2.4,0.5-4.4,1.4-6.2c1-1.8,2.3-3.2,4-4.2C261.1,68.1,263,67.6,265.2,67.6z"/>
		<path class="st0" d="M286.5,73.6c0.7,0,1.2,0.1,1.7,0.4c0.4,0.3,0.7,0.7,0.9,1.1c0.2,0.4,0.3,0.9,0.3,1.4c0,0.8-0.2,1.4-0.7,1.9
			s-1.1,0.7-1.8,0.7c-0.7,0-1.3-0.2-1.7-0.6c-0.4-0.4-0.6-0.9-0.6-1.5s0.1-1.1,0.4-1.5s0.6-0.7,1-1c-0.3-0.1-0.6-0.1-0.9,0
			c-0.4,0.1-0.8,0.2-1.1,0.5c-0.4,0.3-0.7,0.6-0.9,1c-0.3,0.4-0.5,0.8-0.6,1.3s-0.2,0.9-0.2,1.3V87c0,1,0.2,1.7,0.7,2.1
			s1.2,0.5,2.2,0.5v0.7c-0.5,0-1.2,0-2.1-0.1c-0.9,0-1.9,0-2.9,0c-0.8,0-1.7,0-2.6,0s-1.5,0.1-2,0.1v-0.7c0.7,0,1.3-0.2,1.6-0.5
			c0.3-0.3,0.5-0.9,0.5-1.8v-10c0-1-0.1-1.7-0.4-2.1c-0.3-0.5-0.8-0.7-1.6-0.7v-0.7c0.7,0.1,1.3,0.1,2,0.1c0.9,0,1.7,0,2.5-0.1
			s1.5-0.2,2.1-0.3v3c0.3-0.6,0.6-1.1,1-1.6s0.9-0.8,1.5-1.1C285.2,73.8,285.9,73.6,286.5,73.6z"/>
		<path class="st0" d="M306.1,73.7V87c0,1,0.1,1.7,0.4,2.1c0.3,0.5,0.8,0.7,1.6,0.7v0.7c-0.7-0.1-1.3-0.1-2-0.1
			c-0.9,0-1.7,0-2.5,0.1s-1.5,0.2-2.2,0.3V88c-0.5,1.1-1.2,1.8-2.1,2.3s-1.9,0.7-3,0.7c-0.9,0-1.6-0.1-2.2-0.3
			c-0.6-0.2-1-0.5-1.3-0.9c-0.4-0.4-0.6-0.9-0.8-1.6c-0.1-0.7-0.2-1.5-0.2-2.5v-8c0-1-0.1-1.7-0.4-2.1c-0.3-0.5-0.8-0.7-1.6-0.7
			v-0.7c0.7,0.1,1.3,0.1,2,0.1c0.9,0,1.7,0,2.5-0.1s1.5-0.2,2.1-0.3v13.2c0,0.5,0,1,0.1,1.4s0.3,0.7,0.6,0.9
			c0.3,0.2,0.7,0.3,1.2,0.3c0.6,0,1.1-0.2,1.5-0.5c0.5-0.3,0.8-0.8,1.1-1.3c0.3-0.6,0.4-1.2,0.4-1.9v-8.3c0-1-0.1-1.7-0.4-2.1
			c-0.3-0.5-0.8-0.7-1.6-0.7v-0.7c0.7,0.1,1.3,0.1,2,0.1c0.9,0,1.7,0,2.5-0.1C304.7,74,305.4,73.9,306.1,73.7z"/>
		<path class="st0" d="M315.9,73.7v13.8c0,0.9,0.2,1.5,0.5,1.8s0.8,0.5,1.6,0.5v0.7c-0.4,0-1,0-1.8-0.1c-0.8,0-1.6,0-2.4,0
			s-1.7,0-2.5,0s-1.5,0.1-1.9,0.1v-0.7c0.7,0,1.3-0.2,1.6-0.5c0.3-0.3,0.5-0.9,0.5-1.8v-10c0-1-0.1-1.7-0.4-2.1
			c-0.3-0.5-0.8-0.7-1.6-0.7V74c0.7,0.1,1.3,0.1,2,0.1c0.9,0,1.7,0,2.5-0.1C314.6,74,315.3,73.9,315.9,73.7z M313.5,65.9
			c0.9,0,1.6,0.2,2.1,0.7c0.5,0.4,0.8,1,0.8,1.8s-0.3,1.4-0.8,1.8s-1.2,0.7-2.1,0.7s-1.6-0.2-2.1-0.7c-0.5-0.4-0.8-1-0.8-1.8
			s0.3-1.4,0.8-1.8C311.9,66.1,312.6,65.9,313.5,65.9z"/>
		<path class="st0" d="M325.4,73.6c0.9,0,1.7,0.1,2.3,0.3c0.7,0.2,1.1,0.4,1.4,0.7c0.7,0.5,1.2,0.2,1.3-1h0.7c0,0.6-0.1,1.3-0.1,2.2
			c0,0.9,0,2,0,3.4h-0.7c-0.1-0.8-0.3-1.6-0.6-2.3c-0.3-0.8-0.7-1.4-1.3-1.9c-0.6-0.5-1.3-0.7-2.2-0.7c-0.6,0-1.1,0.2-1.6,0.5
			c-0.4,0.3-0.6,0.9-0.6,1.5s0.2,1.2,0.6,1.7s0.9,0.9,1.5,1.4c0.6,0.4,1.2,0.9,1.9,1.4c0.7,0.5,1.3,1.1,1.9,1.6s1,1.1,1.4,1.7
			c0.3,0.6,0.5,1.3,0.5,2.2c0,1-0.3,1.8-0.8,2.5c-0.6,0.7-1.3,1.3-2.2,1.6c-0.9,0.4-1.9,0.6-3,0.6c-0.6,0-1.2-0.1-1.7-0.2
			s-0.9-0.3-1.3-0.5c-0.3-0.1-0.5-0.2-0.8-0.4c-0.2-0.1-0.5-0.2-0.7-0.3c-0.2-0.1-0.4,0-0.6,0.2s-0.3,0.5-0.4,0.9h-0.7
			c0-0.7,0.1-1.5,0.1-2.5s0-2.3,0-3.9h0.7c0.1,1.1,0.4,2.2,0.7,3c0.3,0.9,0.8,1.6,1.4,2.1s1.3,0.7,2.2,0.7c0.4,0,0.7-0.1,1-0.2
			s0.6-0.4,0.8-0.7c0.2-0.3,0.3-0.8,0.3-1.3c0-0.9-0.3-1.7-0.9-2.3c-0.6-0.6-1.4-1.3-2.3-2c-0.7-0.6-1.3-1.1-1.9-1.6
			s-1.1-1.1-1.5-1.8c-0.4-0.6-0.6-1.4-0.6-2.2c0-1,0.3-1.8,0.8-2.4c0.5-0.7,1.2-1.1,2-1.5C323.6,73.8,324.5,73.6,325.4,73.6z"/>
		<path class="st0" d="M341.8,73.6c1.9,0,3.3,0.6,4.4,1.7s1.6,2.9,1.6,5.4h-10.5l-0.1-0.6h6.5c0-1,0-2-0.2-2.9
			c-0.1-0.9-0.4-1.6-0.7-2.1c-0.3-0.5-0.7-0.8-1.3-0.8c-0.7,0-1.4,0.5-1.9,1.4s-0.8,2.5-0.9,4.6l0.1,0.2c0,0.3,0,0.5,0,0.8
			s0,0.6,0,0.9c0,1.5,0.2,2.6,0.6,3.6c0.4,0.9,0.9,1.6,1.6,2c0.6,0.4,1.3,0.6,1.9,0.6c0.4,0,0.9-0.1,1.4-0.2s1-0.4,1.4-0.8
			c0.5-0.4,0.9-0.9,1.4-1.6l0.6,0.2c-0.3,0.8-0.7,1.6-1.2,2.4c-0.6,0.8-1.3,1.4-2.1,1.9c-0.8,0.5-1.9,0.7-3.1,0.7
			c-1.4,0-2.7-0.3-3.8-0.9c-1.1-0.6-2-1.5-2.6-2.8s-0.9-2.8-0.9-4.8s0.3-3.6,1-4.9s1.6-2.3,2.8-2.9C339,74,340.3,73.6,341.8,73.6z"
			/>
	</g>
</g>
<g>
	<path class="st1" d="M71.6,37.9C71,27.6,66.4,18.3,59.4,11.6l0,0c-1.9-0.3-3.8-0.5-5.8-0.5c-19,0-34.4,15.4-34.4,34.4
		c0,15.1,9.7,27.9,23.3,32.5C58,73.8,69.7,60.5,71.3,44.1c0.1-1.3,0.2-2.7,0.2-4.1C71.6,39.4,71.6,38.6,71.6,37.9z"/>
	
		<linearGradient id="SVGID_1_" gradientUnits="userSpaceOnUse" x1="45.4" y1="24" x2="45.4" y2="100.9555" gradientTransform="matrix(1 0 0 -1 0 102)">
		<stop  offset="0" style="stop-color:#F9AC1B"/>
		<stop  offset="0.2306" style="stop-color:#F9B523"/>
		<stop  offset="0.6147" style="stop-color:#FBCF3A"/>
		<stop  offset="1" style="stop-color:#FCEF57"/>
	</linearGradient>
	<path class="st2" d="M71.6,37.9C71,27.6,66.4,18.3,59.4,11.6l0,0c-1.9-0.3-3.8-0.5-5.8-0.5c-19,0-34.4,15.4-34.4,34.4
		c0,15.1,9.7,27.9,23.3,32.5C58,73.8,69.7,60.5,71.3,44.1c0.1-1.3,0.2-2.7,0.2-4.1C71.6,39.4,71.6,38.6,71.6,37.9z"/>
	
		<linearGradient id="SVGID_2_" gradientUnits="userSpaceOnUse" x1="30.2" y1="22.6091" x2="30.2" y2="101.2" gradientTransform="matrix(1 0 0 -1 0 102)">
		<stop  offset="0" style="stop-color:#F9AC1B"/>
		<stop  offset="0.2306" style="stop-color:#F9B523"/>
		<stop  offset="0.6147" style="stop-color:#FBCF3A"/>
		<stop  offset="1" style="stop-color:#FCEF57"/>
	</linearGradient>
	<path class="st3" d="M19.3,45.5c0-19,15.4-34.4,34.4-34.4c2,0,3.9,0.2,5.8,0.5C53.9,6.4,46.9,2.7,39.1,1.4
		c-2.2-0.4-4.5-0.6-6.8-0.6c-1.3,0-2.5,0.1-3.8,0.2L0.9,28.4v35.1c0,0.1,0,0.2,0.1,0.3c7.2,9.5,18.5,15.6,31.3,15.6h0.1
		c0.1,0,0.2,0.1,0.4,0.1c0.4,0,0.8,0.1,1.2,0c3-0.1,5.9-0.6,8.6-1.3C29,73.5,19.3,60.6,19.3,45.5z"/>
	<path class="st1" d="M71.5,37.9c0,0.7,0.1,1.5,0.1,2.2C71.6,39.4,71.6,38.6,71.5,37.9C71,27.6,66.4,18.2,59.4,11.7h-0.1v-0.1
		C66.3,18.3,70.9,27.6,71.5,37.9z"/>
	<g class="st4">
		<path class="st0" d="M36.7,15.6c-0.8,0.5-1.6,1-2.4,1.5c-7.1,0.6-13.6,3-19.3,6.6C9.2,27.3,4.4,32.2,0.9,38v-2.6
			c3.5-5.2,8.1-9.6,13.5-12.9C20.9,18.4,28.5,15.9,36.7,15.6z"/>
		<path class="st0" d="M46.1,12c-1,0.2-2.1,0.5-3.1,0.8c-1.7-0.2-3.4-0.3-5.1-0.3c-1.4,0-2.8,0.1-4.2,0.2c-7.8,0.6-14.9,3-21.3,6.6
			C8.1,21.9,4,25.1,0.9,28.8v-0.4l9.6-9.4v-0.1c0.4-0.2,0.5-0.4,1-0.6v-0.1c0-0.1,0.3-0.1,0.4-0.2c7.1-4.2,15.6-6.7,24.6-6.9
			c0.5-0.1,1,0,1.4,0C40.7,11.2,43.4,11.6,46.1,12z"/>
		<path class="st0" d="M29.4,21.2c-0.5,0.5-1,1.1-1.5,1.6c-4.6,1.2-8.8,3.3-12.6,6C8.6,33.6,3.5,40.4,0.9,48.3v-3.5
			C4,37.7,9,31.6,15.3,27.3C19.5,24.4,24.3,22.3,29.4,21.2z"/>
		<path class="st0" d="M24.8,26.9c-0.3,0.5-0.6,1-0.9,1.5C11.4,34,2.7,46.5,2.7,61c0,1.7,0.1,3.4,0.4,5c-0.6-0.5-1-1-1.3-1.5
			c-0.1-1.1-0.2-2.4-0.2-3.5C1.6,45.5,11.2,32.2,24.8,26.9z"/>
		<path class="st0" d="M22,32.4C22,32.4,22,32.3,22,32.4L22,32.4c-0.2,0.8-0.4,1-0.6,1.5C12.3,39.5,6.2,49.6,6.2,61
			c0,3.3,0.5,6.5,1.4,9.5c-0.4-0.3-0.8-0.7-1.3-1.1c-0.8-2.7-1.1-5.6-1.1-8.4C5.3,48.8,11.9,38,22,32.4z"/>
		<path class="st0" d="M20.3,37.4L20.3,37.4L20.3,37.4c-0.1,0.4-0.2,0.8-0.3,1.3l0,0C13.5,44,9.4,52,9.4,61c0,4.6,1.1,9,3,12.9
			c-0.5-0.2-1-0.5-1.4-0.8c-1.6-3.7-2.5-7.7-2.5-12C8.5,51.4,13.1,42.8,20.3,37.4z"/>
		<path class="st0" d="M19.4,43.3C15,47.9,12.3,54.2,12.3,61c0,5.7,1.9,11.1,5.1,15.4c-0.5-0.2-1-0.4-1.5-0.7
			c-2.8-4.2-4.4-9.3-4.4-14.7c0-7.4,3-14.2,7.9-19C19.4,42.4,19.4,42.9,19.4,43.3z"/>
	</g>
	<path class="st5" d="M88,45.5c0,19-15.4,34.4-34.4,34.4c-3.9,0-7.6-0.6-11.1-1.8C58,73.9,69.7,60.6,71.3,44.2
		c0.1-1.3,0.2-2.7,0.2-4.1c0-0.7,0-1.5-0.1-2.2c-0.4-10.3-5-19.6-12-26.3C75.7,14.4,88,28.5,88,45.5z"/>
	<path class="st5" d="M72,37.5c-0.1-2.1-0.7-4.2-1.2-6.2c-0.2-0.9-0.4-1.8-0.7-2.7c-0.7-2.4-1.6-4.7-2.8-6.8c-0.5-1-1-1.9-1.6-2.8
		c-1.3-1.9-2.7-3.8-4.2-5.5c1.6,1.7,3,3.6,4.2,5.5c0.5,0.9,1.1,1.8,1.6,2.8c1.1,2.2,2.1,4.5,2.8,6.8c0.3,0.8,0.5,1.8,0.7,2.7
		C71.4,33.3,71.9,35.4,72,37.5z"/>
	<path class="st1" d="M68.2,23.5C68.2,23.5,68.1,23.5,68.2,23.5C68.1,23.5,68.2,23.5,68.2,23.5z M63.8,16.3l-0.1-0.1
		C63.8,16.2,63.8,16.2,63.8,16.3z M64.9,17.8c-0.1-0.1-0.1-0.2-0.2-0.3C64.8,17.6,64.8,17.7,64.9,17.8z M62.8,15
		c-0.1-0.1-0.2-0.2-0.3-0.4C62.6,14.8,62.7,14.9,62.8,15z M70.3,29.4c0.2,0.6,0.3,1.3,0.5,2c0.1,0.5,0.3,1.1,0.4,1.6
		c-0.1-0.5-0.3-1.1-0.4-1.6C70.6,30.7,70.5,30,70.3,29.4z"/>
	
		<linearGradient id="SVGID_3_" gradientUnits="userSpaceOnUse" x1="87.3" y1="49.25" x2="87.3" y2="49.25" gradientTransform="matrix(1 0 0 -1 0 102)">
		<stop  offset="0" style="stop-color:#B3E1EE"/>
		<stop  offset="0.2534" style="stop-color:#9BCCE5"/>
		<stop  offset="0.7844" style="stop-color:#5F97CC"/>
		<stop  offset="1" style="stop-color:#4580C2"/>
	</linearGradient>
	<path class="st6" d="M87.3,52.6L87.3,52.6c0,0.1,0,0.1,0,0.2c0,0,0,0,0,0.1C87.3,52.8,87.3,52.7,87.3,52.6L87.3,52.6z"/>
	
		<linearGradient id="SVGID_4_" gradientUnits="userSpaceOnUse" x1="57.0907" y1="22.25" x2="57.5516" y2="22.25" gradientTransform="matrix(1 0 0 -1 0 102)">
		<stop  offset="0" style="stop-color:#B3E1EE"/>
		<stop  offset="0.2534" style="stop-color:#9BCCE5"/>
		<stop  offset="0.7844" style="stop-color:#5F97CC"/>
		<stop  offset="1" style="stop-color:#4580C2"/>
	</linearGradient>
	<path class="st7" d="M57.6,79.7c-0.2,0-0.3,0-0.5,0.1C57.2,79.7,57.4,79.7,57.6,79.7L57.6,79.7z"/>
	
		<linearGradient id="SVGID_5_" gradientUnits="userSpaceOnUse" x1="56.307" y1="22.2" x2="56.5887" y2="22.2" gradientTransform="matrix(1 0 0 -1 0 102)">
		<stop  offset="0" style="stop-color:#B3E1EE"/>
		<stop  offset="0.2534" style="stop-color:#9BCCE5"/>
		<stop  offset="0.7844" style="stop-color:#5F97CC"/>
		<stop  offset="1" style="stop-color:#4580C2"/>
	</linearGradient>
	<path class="st8" d="M56.3,79.8c0.1,0,0.2,0,0.3,0C56.5,79.8,56.4,79.8,56.3,79.8L56.3,79.8z"/>
	<g>
		
			<linearGradient id="SVGID_6_" gradientUnits="userSpaceOnUse" x1="34.147" y1="78.6" x2="70.6135" y2="78.6" gradientTransform="matrix(1 0 0 -1 0 102)">
			<stop  offset="0" style="stop-color:#B3E1EE"/>
			<stop  offset="0.2534" style="stop-color:#9BCCE5"/>
			<stop  offset="0.7844" style="stop-color:#5F97CC"/>
			<stop  offset="1" style="stop-color:#4580C2"/>
		</linearGradient>
		<path class="st9" d="M70.6,31.1L70.6,31.1L70.6,31.1h-0.2h-0.2l0,0h0.2H70.6L70.6,31.1c-0.1,0-0.1,0-0.1-0.1s0-0.1,0-0.2
			s0-0.2-0.1-0.3c0-0.1,0-0.2-0.1-0.3l0,0c0-0.1,0-0.1-0.1-0.2v-0.1c0-0.1-0.1-0.2-0.1-0.3c0-0.1,0-0.1,0-0.2s0-0.1,0-0.2l0,0v-0.1
			l0,0l0,0V29l0,0c0-0.1-0.1-0.2-0.1-0.4v-0.1l0,0h0.1l0,0l0,0c-8.1-8-19.3-12.8-31.6-12.8c-0.4,0-1,0-1.4,0.1c-0.1,0-0.4,0-0.4,0
			l0,0c-0.9,0.5-1.5,1-2.3,1.5c0.1,0,0.2,0,0.2,0C35.7,17,37,17,38.3,17C51,17,62.6,22.4,70.6,31.1L70.6,31.1L70.6,31.1z"/>
		
			<linearGradient id="SVGID_7_" gradientUnits="userSpaceOnUse" x1="67.0457" y1="85.1" x2="43.0698" y2="85.1" gradientTransform="matrix(1 0 0 -1 0 102)">
			<stop  offset="0" style="stop-color:#B3E1EE"/>
			<stop  offset="0.2534" style="stop-color:#9BCCE5"/>
			<stop  offset="0.7844" style="stop-color:#5F97CC"/>
			<stop  offset="1" style="stop-color:#4580C2"/>
		</linearGradient>
		<path class="st10" d="M67,21.7c-6.7-4.7-14.7-7.8-23.5-8.8c-0.1,0-0.3,0-0.4,0c1-0.3,2-0.6,3.1-0.8c0.3,0,0.5,0.1,0.8,0.1
			c0.1,0,0.1,0,0.1,0c6.7,0.9,12.9,3.3,18.4,6.7c0.2,0.3,0.4,0.6,0.5,0.9c0,0.1,0.1,0.1,0.1,0.2s0.1,0.1,0.1,0.2l0,0
			c0,0.1,0.1,0.1,0.1,0.2s0.1,0.1,0.1,0.2C66.6,21,66.8,21.3,67,21.7C67,21.5,67,21.6,67,21.7z"/>
		
			<linearGradient id="SVGID_8_" gradientUnits="userSpaceOnUse" x1="27.9" y1="72.1" x2="71.6401" y2="72.1" gradientTransform="matrix(1 0 0 -1 0 102)">
			<stop  offset="0" style="stop-color:#B3E1EE"/>
			<stop  offset="0.2534" style="stop-color:#9BCCE5"/>
			<stop  offset="0.7844" style="stop-color:#5F97CC"/>
			<stop  offset="1" style="stop-color:#4580C2"/>
		</linearGradient>
		<path class="st11" d="M71.6,39c0-0.1,0-0.1,0-0.2c0-0.1,0-0.2,0-0.3c0-0.2,0-0.3,0-0.5l0,0l0,0v-0.1l0,0c0-0.2,0-0.3,0-0.5l0,0
			C64.2,26.9,52,20.2,38.3,20.2c-3,0-5.8,0.3-8.6,1c-0.1,0-0.2,0-0.3,0.1c-0.5,0.5-1,1.1-1.5,1.6c0.1,0,0.2,0,0.3-0.1
			c3.3-0.9,6.6-1.4,10.2-1.4c14,0,26.3,7.2,33.3,18.2l0,0C71.6,39.4,71.6,39.2,71.6,39z"/>
		
			<linearGradient id="SVGID_9_" gradientUnits="userSpaceOnUse" x1="23.9" y1="66.45" x2="71.2634" y2="66.45" gradientTransform="matrix(1 0 0 -1 0 102)">
			<stop  offset="0" style="stop-color:#B3E1EE"/>
			<stop  offset="0.2534" style="stop-color:#9BCCE5"/>
			<stop  offset="0.7844" style="stop-color:#5F97CC"/>
			<stop  offset="1" style="stop-color:#4580C2"/>
		</linearGradient>
		<path class="st12" d="M38.2,24.3c-4.7,0-9.2,1-13.3,2.6c0,0,0,0.1-0.1,0.1l0,0c-0.3,0.4-0.6,0.9-0.9,1.4l0.1-0.1
			c4.4-1.9,9.2-3,14.3-3c14.6,0,27.3,8.9,32.7,21.5l0,0c0.1-0.6,0.1-1.3,0.2-1.9h-0.1l0,0C65.4,32.7,52.7,24.3,38.2,24.3z"/>
		
			<linearGradient id="SVGID_10_" gradientUnits="userSpaceOnUse" x1="21.4" y1="61.55" x2="70" y2="61.55" gradientTransform="matrix(1 0 0 -1 0 102)">
			<stop  offset="0" style="stop-color:#B3E1EE"/>
			<stop  offset="0.2534" style="stop-color:#9BCCE5"/>
			<stop  offset="0.7844" style="stop-color:#5F97CC"/>
			<stop  offset="1" style="stop-color:#4580C2"/>
		</linearGradient>
		<path class="st13" d="M38.3,27.9c-5.9,0-11.5,1.6-16.3,4.3v0.1c0,0,0,0,0,0.1v-0.1l0,0c-0.2,0.9-0.4,1-0.6,1.5
			c0.1,0,0.1-0.1,0.2-0.1c4.9-3.1,10.6-4.8,16.8-4.8c15,0,27.6,10.3,31.1,24.1c0.2-0.5,0.4-1.1,0.5-1.6l0,0l0,0
			C65.9,37.8,53.2,27.9,38.3,27.9z"/>
		
			<linearGradient id="SVGID_11_" gradientUnits="userSpaceOnUse" x1="19.9908" y1="57.2" x2="67.7908" y2="57.2" gradientTransform="matrix(1 0 0 -1 0 102)">
			<stop  offset="0" style="stop-color:#B3E1EE"/>
			<stop  offset="0.2534" style="stop-color:#9BCCE5"/>
			<stop  offset="0.7844" style="stop-color:#5F97CC"/>
			<stop  offset="1" style="stop-color:#4580C2"/>
		</linearGradient>
		<path class="st14" d="M38.3,31.2c-6.7,0-12.8,2.2-17.9,6c-0.1,0-0.1,0.1-0.2,0.1l0,0l0,0c-0.1,0.4-0.2,0.8-0.3,1.3l0.1-0.1
			c5-4,11.3-6.5,18.2-6.5C53.3,32,65.7,43.6,67,58.4c0.2-0.5,0.5-0.9,0.7-1.4l0,0C65.9,42.5,53.4,31.2,38.3,31.2z"/>
		
			<linearGradient id="SVGID_12_" gradientUnits="userSpaceOnUse" x1="19.377" y1="53.5" x2="65.1751" y2="53.5" gradientTransform="matrix(1 0 0 -1 0 102)">
			<stop  offset="0" style="stop-color:#B3E1EE"/>
			<stop  offset="0.2534" style="stop-color:#9BCCE5"/>
			<stop  offset="0.7844" style="stop-color:#5F97CC"/>
			<stop  offset="1" style="stop-color:#4580C2"/>
		</linearGradient>
		<path class="st15" d="M65.2,61c0,0.3,0,0.5,0,0.7l0,0l0,0l0,0l0,0c-0.3,0.4-0.6,0.8-0.9,1.2c0.1-0.6,0.1-1.3,0.1-2
			c0-14.4-11.7-26-26.1-26c-7.4,0-14.2,3.1-18.9,8.2c0,0,0,0-0.1,0.1c0-0.4,0.1-0.8,0.1-1.3l0,0c0,0,0.1,0,0.1-0.1
			c4.9-4.8,11.4-7.7,18.8-7.7C53.1,34.2,65.2,46.2,65.2,61z"/>
	</g>
	<g>
		<path class="st16" d="M83.8,61c0,0.4,0,0.8,0,1.2c-0.2,0.3-0.3,0.6-0.5,0.9c0,0.1-0.1,0.1-0.1,0.2c-0.1,0.2-0.3,0.4-0.4,0.6
			c-0.1,0.1-0.1,0.2-0.2,0.3c-0.1,0.1-0.1,0.2-0.2,0.3l-0.1,0.1c0.1-1.2,0.1-2.3,0.1-3.6c0-11.4-4.4-21.8-11.6-29.7
			c-0.1-0.1-0.1-0.1-0.2-0.2l0,0l0,0l0,0l0,0V31l0,0l0,0c-0.2-0.7-0.3-1.4-0.5-2l0,0c0-0.1,0-0.1,0-0.2S70,28.6,70,28.4l0,0l0,0l0,0
			c0.1,0.1,0.2,0.2,0.2,0.2C78.5,36.9,83.8,48.3,83.8,61z"/>
		<path class="st16" d="M87.3,52.6c0,0.1,0,0.2-0.1,0.3l0,0c0,0.1,0,0.1,0,0.2l0,0v0.1l0,0l0,0l0,0c0,0.1,0,0.1,0,0.2l0,0
			c0,0.1,0,0.1,0,0.2l0,0c0,0.1,0,0.1,0,0.2l0,0c0,0.1,0,0.1,0,0.2c0,0.1,0,0.1,0,0.2v0.1v0.1v0.1v0.1c0,0.1,0,0.1,0,0.2l0,0v0.1V55
			c0,0,0,0,0,0.1v0.1v0.1l0,0v0.1l0,0v0.1c0,0.2-0.1,0.3-0.1,0.5v0.1c0,0.1,0,0.2-0.1,0.2c-0.1,0.2-0.2,0.3-0.2,0.5v-0.5
			c0-11.4-4.8-21.8-12.7-29.7c-1.9-1.9-4-3.7-6.3-5.3l0,0c-0.1-0.2-0.2-0.4-0.3-0.5c-0.1-0.1-0.1-0.2-0.2-0.4c0-0.1-0.1-0.1-0.1-0.2
			s-0.1-0.1-0.1-0.2S67,19.9,67,19.8s-0.1-0.1-0.1-0.2s-0.1-0.1-0.1-0.2c-0.1-0.1-0.1-0.2-0.2-0.3l0,0c0-0.1-0.1-0.1-0.1-0.2
			c0,0,0-0.1-0.1-0.1c0-0.1-0.1-0.1-0.1-0.2c-0.1-0.1-0.1-0.2-0.2-0.3c2.6,1.6,5,3.5,7.2,5.5C80.8,31.7,86.2,41.5,87.3,52.6z"/>
		<path class="st16" d="M79.2,61c0,2.9-0.3,5.7-0.9,8.5c-0.1,0.1-0.2,0.2-0.4,0.4c-0.1,0.1-0.1,0.1-0.2,0.2l-0.1,0.1l-0.1,0.1
			c0,0,0,0-0.1,0.1c0,0,0,0-0.1,0.1c-0.1,0-0.1,0.1-0.2,0.1c-0.1,0.1-0.1,0.1-0.2,0.2s-0.1,0.1-0.2,0.2s-0.1,0.1-0.2,0.2
			c0.9-3.2,1.3-6.6,1.3-10c0-7.8-2.3-15-6.2-21.2c-0.1-0.1-0.2-0.2-0.2-0.3l0,0c0-0.2,0-0.4,0-0.6c0-0.1,0-0.1,0-0.2
			c0-0.3,0-0.6,0-0.8l0,0l0,0V38l0,0c0-0.2,0-0.3,0-0.5l0,0l0,0c0,0.1,0.1,0.1,0.1,0.2C76.5,44.1,79.2,52.2,79.2,61z"/>
		<path class="st16" d="M75.1,61c0,4.6-0.9,9-2.4,13.1c-0.1,0.1-0.3,0.2-0.4,0.3l-0.1,0.1c-0.4,0.2-0.7,0.5-1.1,0.7l0,0l0,0l0,0
			c1.9-4.4,3-9.1,3-14.2c0-5-1-9.7-2.9-13.9c0-0.1,0-0.1-0.1-0.2l0,0l0,0l0,0c0.1-0.6,0.2-1.3,0.3-1.9l0,0l0,0l0,0
			c0,0.1,0.1,0.1,0.1,0.2C73.8,49.9,75.1,55.3,75.1,61z"/>
		<path class="st16" d="M71.4,61c0,5.8-1.5,11.3-4.2,16.1l0,0h-0.1l0,0c-0.4,0.2-0.9,0.4-1.3,0.6l0,0l0,0l0,0
			c2.6-4.9,4.6-10.6,4.6-16.7c0-2.7-0.3-5.2-1-7.7c0-0.1,0-0.1-0.1-0.2l0,0c0.2-0.5,0.4-1.1,0.5-1.6l0,0l0,0l0,0l0,0
			c0,0.1,0.1,0.2,0.1,0.3C71,54.7,71.4,57.8,71.4,61z"/>
		<path class="st16" d="M68.1,61c0,6.7-2.2,12.9-6,17.8l0,0c-0.4,0.1-0.9,0.2-1.3,0.3l0,0l0,0c4-4.9,6.4-11.3,6.4-18.1
			c0-0.8-0.2-1.6-0.3-2.4c0-0.1-0.2-0.1-0.2-0.2l0,0c0.4-0.5,0.6-0.9,0.8-1.4h0.1l0,0c0,0.1,0.1,0.1,0.1,0.2
			C68,58.4,68.1,59.7,68.1,61z"/>
		<path class="st16" d="M65.1,61.7C65.1,61.8,65.1,61.8,65.1,61.7c0,0.1,0,0.2,0,0.3c-0.2,6.9-3,13.3-7.5,17.6l0,0v-0.1l0,0
			c-0.2,0-0.4,0-0.4,0.1l0,0c-0.4,0-0.3,0-0.5,0c-0.1,0-0.2,0-0.3,0c4.5-4.3,7.5-10.1,7.9-16.7v-0.1l0,0l0,0
			C64.6,62.6,64.8,62.2,65.1,61.7C65.1,61.8,65,61.7,65.1,61.7L65.1,61.7C65,61.7,65.1,61.8,65.1,61.7z"/>
	</g>
	<path class="st0" d="M30.5,36.7c-0.2,0.2-0.3,0.3-0.5,0.4c-0.2-1-0.5-1.9-0.7-2.8c-0.1,0-0.1,0-0.2,0c0,0.3-0.1,0.5-0.1,0.8
		c-0.2,1.1-0.3,2.1-0.4,3.2c-0.1,0.5-0.3,0.8-0.9,0.7c-0.1,0-0.2,0-0.4,0.1c0.1,0.6,0.4,1.2,0.3,1.8s-0.5,1.1-0.7,1.6
		c-0.1,0-0.1,0-0.2,0c-0.2-0.5-0.5-0.9-0.7-1.4c-0.9-2.3-1.1-4.6-0.2-7c0.4-1,0.7-2,0.2-3.1c-0.1-0.3-0.4-0.5-0.6-0.7
		c-0.2,0.3-0.5,0.5-0.6,0.9c-0.2,1.2-0.3,2.3-0.4,3.6C24,34.6,23.6,34.3,23,34c-0.1,0.5-0.3,1-0.4,1.6c-0.1-0.3-0.2-0.4-0.2-0.6
		c-0.2-1-0.4-2-0.6-3.1c-0.2-1,0.2-1.8,0.8-2.6c0.4-0.4,0.8-0.8,1.3-1.3c-0.5-0.2-1-0.4-1.6-0.6c0.6-1.4,0.7-2.8-1-3.4
		c0.8-1.5,3.1-2.3,4.9-1.7c0.8,0.3,1.5,0.7,1.9,1.4c0.4,0.7,0.7,0.7,1.4,0.4c0.7-0.3,1.3-0.7,2-1c1.5-0.7,2.7-0.4,3.8,0.7
		c0.7,0.7,1.3,1.4,1.6,2.3c-0.4,0.1-0.8,0.2-1,0.4c-0.2,0.3-0.1,0.7-0.1,1.1c-0.2-0.2-0.4-0.4-0.5-0.6c-0.8-0.8-1.6-0.9-2.5-0.3
		c-0.5,0.3-0.5,0.6-0.1,1c0.3,0.2,0.7,0.5,1.1,0.6c1.8,0.3,2.9,1.7,3,3.7c0.1,2.1-0.6,4-1.4,5.8c-0.1,0.2-0.3,0.4-0.5,0.6
		c-0.1,0-0.2,0-0.2-0.1c0-0.4,0-0.8,0-1.2s0-0.7-0.3-1s-0.4-0.6-0.2-1c0.2-0.8,0.3-1.6,0.4-2.3c0-0.2-0.1-0.5-0.2-0.7
		c-0.2-0.4-0.6-0.5-0.9-0.4c-0.3,0.1-0.6,0.4-0.6,0.7c0,0.6,0.1,1.1,0.2,1.7c0,0.2,0.1,0.5,0.2,0.8c-0.6-0.1-1.2-0.2-1.9-0.3
		c0.3,0.9,0.5,1.6,0.7,2.4c1.2,4.3,2.5,8.5,2.9,13c0.3,3.5,0.4,7.1,0.3,10.6c-0.1,2.8-1,5.4-2.2,7.9c-0.4,0.9-0.9,1-1.6,0.5
		c-0.5-0.2-0.7-0.6-0.5-1c1.1-2.9,1.9-5.9,2.2-9c0.5-4.1,0.3-8.2-0.3-12.3c-0.5-3.1-1.2-6.2-2.2-9.2C30.7,37.3,30.6,37,30.5,36.7z"
		/>
	<path d="M0.9,28.4v62.5h0.2L1.5,91h0.1c0.1,0,0.1,0.1,0.2,0.1l0.4,0.1c1,0.4,1.9,1,2.9,1.7c0.8,0.6,1.7,1.1,2.7,1.6
		c0.1,0.1,0.3,0.2,0.4,0.2c0.2,0.1,0.6,0.2,0.9,0.3c0.2,0.1,0.3,0.1,0.5,0.1h2.6c0.9-0.2,1.7-0.5,2.4-1c0.1,0.1,0.1,0.1,0.1,0
		c0.2-0.1,0.5-0.3,0.7-0.4c0.1-0.1,0.2-0.2,0.4-0.2c0.5-0.4,1-0.7,1.6-1c0-0.1,0.1-0.1,0.1-0.1c0.2-0.1,0.3-0.2,0.5-0.4
		c0.1-0.1,0.2-0.1,0.4-0.2h0.1c0.1-0.1,0.2-0.2,0.4-0.3c0.2-0.1,0.4-0.2,0.6-0.2c0.1-0.1,0.1-0.1,0.2-0.1c0.1-0.1,0.2-0.1,0.2-0.1
		c0.1,0,0.2-0.1,0.3-0.1l0.3-0.1l0.1-0.1h0.1c0.1,0,0.1,0,0.1,0H21l0.4-0.1h0.4c0.1,0.1,0.1,0.1,0.1,0.1H22c0.1,0,0.1,0,0.2,0.1
		l0.4,0.1c0.1,0,0.1,0,0.2,0.1c0.1,0,0.1,0,0.1,0.1l0.3,0.1h0.1c0.6,0.3,1.3,0.7,1.9,1.1c0.1,0.1,0.3,0.2,0.5,0.4
		c1,0.7,1.9,1.4,3,1.9l0.5,0.2l0.2,0.1l0.2,0.1l0.5,0.2c0.1,0,0.1,0,0.2,0.1H33c1-0.2,1.9-0.7,2.8-1.2c0.1-0.1,0.2-0.1,0.3-0.2
		c0.4-0.2,0.7-0.5,1.1-0.7c0.7-0.4,1.3-0.9,1.9-1.3c0.5-0.3,1-0.5,1.5-0.7c0.1,0,0.2-0.1,0.4-0.1l0.4-0.1l0.2-0.1h0.2l0.4-0.1h0.2
		l0.2,0.1H43c0.1,0,0.2,0.1,0.2,0.1c0.4-0.2,0.7-0.4,1.1-0.7c0.1-0.1,0.2-0.1,0.4-0.2c0.6-0.3,1.2-0.7,1.7-1.2
		c0.1,0,0.2-0.1,0.3-0.2c0.4-0.2,0.8-0.5,1.1-0.9c0.6-0.4,1.2-0.9,1.7-1.4c0.4-0.4,0.7-0.7,1-1c0.2-0.2,0.4-0.4,0.5-0.5
		c0.7-0.6,1.3-1.3,1.8-2c0.1,0,0.1,0,0.1-0.1c3.1-3.7,5.5-8.2,7.1-13.2c0.2-0.6,0.4-1.2,0.5-1.9c0.8-3,1.4-6.2,1-9.2
		c-0.3-2.8,0.1-5.1,0.8-7.5c0-0.1,0-0.1,0-0.1c0.1-0.4,0.2-0.7,0.4-1c0.2-0.7,0.5-1.3,0.8-1.9c0.1-0.2,0.2-0.3,0.2-0.5l0.1-0.1
		c0.2-0.2,0.3-0.5,0.4-0.7c-0.2-0.2-0.2-0.4-0.4-0.5c-0.2,0.1-0.4,0.1-0.6,0.2c-0.7,0.1-1.4,0.3-2.1,0.5c-0.2,0.1-0.5,0.1-0.8,0.2
		h-0.1c-6.1,1.5-12.1,3-18.3,4.6c-0.5,0.2-1,0.5-1.6,0.8C38.2,54,38.1,56,39.8,58c0.5,0.7,1.3,1.3,2,1.9c1.8,1.7,1.6,3.3-0.4,4.6
		c-1.3,0.7-2.7,1.3-4,1.7c-7,1.9-14.1,2.6-21.2,2.4c-1.2,0-1.7-0.5-2.2-1.5c-0.7-1.4-1.2-2.9-1.6-4.4c0-0.1,0-0.1,0-0.1
		c-0.4-1.6-0.6-3.3-0.6-4.9v-0.1c0-1.3,0.1-2.6,0.4-3.9c0.4-2.3,0.8-4.5,1.1-6.8v-0.1c0.1-0.7,0.2-1.4,0.4-2.2v-0.2
		c0.2-1.4,0.4-2.9,0.7-4.3c0-0.1,0-0.1,0-0.1c0.1-0.5,0.2-1.1,0.2-1.7V38c0.2-0.9,0.3-1.8,0.4-2.7c0.1-0.4,0.1-0.9,0.1-1.3
		c0.1-0.5,0.1-1,0.1-1.5v-0.1c0.1-1.2,0.1-2.4,0.1-3.6v-1.9c0.1-1.1-0.1-2.2-0.4-3.1c-0.2-0.4-0.3-0.8-0.5-1.3
		c-0.5-1.1-1.2-2.1-1.9-3c-0.1-0.1-0.1-0.1-0.1-0.1c-0.3-0.4-0.5-0.7-0.9-1v-0.1c0-0.1-0.1-0.1-0.1-0.2l-0.8,0.8L10.5,19h-0.1
		L0.9,28.4z"/>
	<g>
		<g>
			<path class="st16" d="M0.9,89.5v1.4h0.2L1.5,91h0.1c0.1,0,0.1,0.1,0.2,0.1l0.4,0.1c1,0.4,1.9,1,2.9,1.7C6,93.6,7,94.2,8.2,94.8
				c0.2,0.1,0.6,0.2,0.9,0.3c0.2,0.1,0.3,0.1,0.5,0.1c0.2,0.1,0.3,0.1,0.5,0.1h0.4l0.2,0.1c0,0,0,0,0.1,0h0.1l0.1-0.1
				c0.4,0,0.7,0,1-0.1c0.1,0,0.2-0.1,0.2-0.1c1.2-0.2,2.2-0.8,3.1-1.4c0.7-0.4,1.3-0.9,1.9-1.3c0-0.1,0.1-0.1,0.1-0.1
				c0.2-0.1,0.3-0.2,0.5-0.4c0.1-0.1,0.2-0.1,0.4-0.2c0.1-0.1,0.3-0.2,0.5-0.3c0.2-0.1,0.4-0.2,0.6-0.2c0.1-0.1,0.1-0.1,0.2-0.1
				c0.1-0.1,0.2-0.1,0.2-0.1c0.1,0,0.2-0.1,0.3-0.1l0.3-0.1l0.1-0.1h0.1c0.1,0,0.1,0,0.1,0h0.2l0.4-0.1h0.4c0.1,0.1,0.1,0.1,0.1,0.1
				H22c0.1,0,0.1,0,0.2,0.1l0.4,0.1c0.1,0,0.1,0,0.2,0.1c0.1,0,0.1,0,0.1,0.1l0.3,0.1h0.1c0.6,0.3,1.3,0.7,1.9,1.1
				c0.1,0.1,0.3,0.2,0.5,0.4c1,0.7,1.9,1.4,3,1.9l0.5,0.2l0.2,0.1l0.2,0.1l0.5,0.2c0.1,0,0.1,0,0.2,0.1c0.1,0,0.2,0,0.2,0.1h0.3
				l0.1,0.1h0.7c0,0.1,0.1,0.1,0.1,0h0.7c0.2,0,0.3-0.1,0.5-0.1c1.2-0.2,2.2-0.8,3.1-1.4c1-0.7,2-1.4,2.9-2c0.5-0.3,1-0.5,1.5-0.7
				c0.1,0,0.2-0.1,0.4-0.1l0.4-0.1l0.2-0.1h0.2l0.4-0.1h0.2l0.2,0.1h0.4c0.1,0,0.2,0.1,0.2,0.1c0.3-0.1,0.9-0.6,1.4-1
				c-0.8-0.3-1.6-0.5-2.5-0.5h-0.5c-0.1,0-0.1,0-0.2,0.1H41l-0.5,0.1c-0.2,0.1-0.4,0.1-0.5,0.2c-0.7,0.2-1.3,0.5-1.8,0.8
				c-1.1,0.7-2.1,1.4-3,2.1c-1,0.6-1.9,1.1-3,1.2h-0.7L31,94h-0.2l-0.2-0.1c-0.1,0-0.2,0-0.4-0.1L30,93.6l-0.4-0.1l-0.4-0.2
				c-1-0.5-1.9-1.1-2.8-1.8c-0.4-0.2-0.7-0.4-1-0.7c-0.7-0.4-1.4-0.8-2.2-1c-0.5-0.2-1.2-0.3-1.8-0.4h-0.1c0,0,0,0-0.1,0h-0.1
				l-0.2,0.1h-0.2c-1.3,0.1-2.4,0.6-3.3,1.2c-0.2,0.1-0.3,0.2-0.4,0.2c-0.8,0.5-1.6,1.1-2.4,1.6c-0.9,0.6-1.8,1-2.8,1.2
				c-0.2,0.1-0.5,0.1-0.7,0.1h-0.4l-0.4-0.1c-0.2-0.1-0.5-0.1-0.7-0.1c-0.2-0.1-0.5-0.1-0.7-0.2c-1-0.4-1.9-1-2.8-1.8
				c-1-0.6-2-1.3-3.2-1.8l-0.5-0.1c-0.1-0.1-0.2-0.1-0.2-0.1H1.7l-0.5-0.1C1.1,89.5,1,89.5,0.9,89.5z"/>
			<path class="st16" d="M0.9,93.1v1.4h0.2l0.4,0.1h0.2c0.1,0.1,0.1,0.1,0.2,0.1l0.2,0.1l0.2,0.1c0.3,0.1,0.6,0.3,0.9,0.5
				c0.7,0.3,1.3,0.8,2,1.3c0.9,0.7,1.9,1.4,3.1,1.9c0.2,0.1,0.6,0.2,0.9,0.3c0.3,0.1,0.7,0.2,1,0.2h0.4l0.2,0.1c0,0,0,0,0.1,0H11
				l0.1-0.1c0.4,0,0.7,0,1-0.1c0.8-0.1,1.5-0.4,2.2-0.8c0.4-0.2,0.8-0.5,1.2-0.7c0.7-0.4,1.3-0.9,1.9-1.3c0,0,0.1,0,0.1-0.1
				c0.2-0.1,0.3-0.2,0.5-0.4c0.1-0.1,0.2-0.1,0.4-0.2c0.1-0.1,0.2-0.1,0.4-0.2l0.1-0.1c0.2-0.1,0.4-0.2,0.6-0.3
				c0.1,0,0.1-0.1,0.2-0.1c0.1-0.1,0.2-0.1,0.2-0.1c0.1,0,0.2-0.1,0.3-0.1l0.3-0.1h0.1c0-0.1,0.1-0.1,0.1-0.1c0.1,0,0.1,0,0.1,0H21
				l0.4-0.1h0.2l0.2,0.1c0.1,0,0.1,0,0.1,0H22c0.1,0,0.1,0.1,0.2,0.1l0.4,0.1c0.1,0,0.1,0.1,0.2,0.1s0.1,0,0.1,0.1l0.3,0.1l0.1,0.1
				c0.2,0.1,0.5,0.2,0.8,0.4c0.4,0.2,0.7,0.4,1.1,0.7c0.1,0.1,0.3,0.2,0.5,0.4c1,0.7,1.9,1.4,3,1.9l0.5,0.2l0.2,0.1l0.2,0.1l0.5,0.2
				c0.1,0,0.3,0.1,0.5,0.1h0.3l0.1,0.1h0.7c0,0.1,0.1,0.1,0.1,0h0.7c0.9-0.1,1.7-0.5,2.5-0.9c0.4-0.2,0.7-0.4,1-0.6s0.5-0.4,0.8-0.6
				c0.4-0.2,0.8-0.5,1.3-0.8c0.1-0.1,0.3-0.2,0.4-0.3c0.4-0.2,0.8-0.5,1.1-0.9c0.6-0.4,1.2-0.9,1.7-1.5c0.1-0.1,0.2-0.2,0.2-0.2
				h-0.2c-0.1,0-0.1,0-0.2,0.1L41,93.2l-0.5,0.1c-0.2,0.1-0.4,0.1-0.5,0.2c-0.7,0.2-1.3,0.5-1.8,0.8c-1.1,0.7-2.1,1.4-3,2.1
				c-1,0.6-1.9,1.1-3,1.2h-0.7L31,97.5h-0.2l-0.2-0.1c-0.1,0-0.2,0-0.4-0.1L30,97.2l-0.2-0.1L29.6,97l-0.4-0.2
				c-0.9-0.4-1.7-1-2.6-1.6c-0.1-0.1-0.2-0.1-0.2-0.2c-0.4-0.2-0.7-0.4-1-0.7c-0.7-0.4-1.4-0.8-2.2-1c-0.5-0.2-1.2-0.3-1.8-0.4h-0.1
				c0,0,0,0-0.1,0h-0.1L20.9,93h-0.2c-1.3,0.1-2.4,0.6-3.3,1.2c-0.2,0.1-0.3,0.2-0.4,0.3c-0.4,0.2-0.7,0.4-1,0.7
				c-0.5,0.3-1,0.6-1.4,0.9c-0.9,0.6-1.8,1.1-2.8,1.2c-0.2,0.1-0.5,0.1-0.7,0.1h-0.4l-0.4-0.1c-0.2,0-0.5-0.1-0.7-0.1
				c-0.4,0-0.6,0-0.9-0.2c-1-0.4-1.9-1-2.8-1.7c-0.1-0.1-0.1-0.1-0.2-0.1c-0.9-0.6-1.9-1.3-3-1.7l-0.5-0.1C2.1,93.3,2,93.3,2,93.3
				H1.7l-0.5-0.1C1.1,93.1,1,93.1,0.9,93.1z"/>
		</g>
	</g>
	<g>
		<path class="st0" d="M57.2,26.2c0.6,0,1.4-0.1,2.3,0.3c0.5,0.2,1.6,1.5,1.8,1.6l0,0l0,0c0.2-0.1,1.4-1.4,1.8-1.6
			c0.8-0.3,1.6-0.3,2.3-0.3c1.3,0.1,2.1,0.5,2.1,0.5s-1.9,0.1-2.5,0.2c-2.4,0.5-3.4,1.3-3.7,1.4c-0.3-0.1-1.4-0.9-3.7-1.4
			c-0.6-0.1-2.5-0.2-2.5-0.2S55.9,26.3,57.2,26.2z"/>
		<path class="st0" d="M48.1,33.1c0.5,0,1,0,1.6,0.2c0.3,0.2,1.2,1.1,1.3,1.2l0,0l0,0c0.2-0.1,1-1,1.3-1.2C53,33,53.6,33,54,33.1
			c1,0.1,1.6,0.3,1.6,0.3s-1.4,0.1-1.8,0.2c-1.7,0.4-2.5,1-2.7,1.1c-0.2-0.1-1-0.7-2.7-1.1c-0.5-0.1-1.8-0.2-1.8-0.2
			S47.1,33.2,48.1,33.1z"/>
		<path class="st0" d="M39.9,27.3c0.5,0,1,0,1.6,0.2c0.3,0.2,1.2,1.1,1.3,1.2l0,0l0,0c0.2-0.1,1-1,1.3-1.2c0.6-0.2,1.2-0.2,1.6-0.2
			c1,0.1,1.6,0.3,1.6,0.3s-1.4,0-1.8,0.1c-1.7,0.4-2.5,1-2.7,1.1c-0.2-0.1-1-0.7-2.7-1.1c-0.5-0.1-1.8-0.1-1.8-0.1
			S38.9,27.3,39.9,27.3z"/>
	</g>
</g>
</svg>
