<?xml version="1.0" encoding="utf-8"?>
<!-- Generator: Adobe Illustrator 16.0.0, SVG Export Plug-In . SVG Version: 6.00 Build 0)  -->
<!DOCTYPE svg PUBLIC "-//W3C//DTD SVG 1.1//EN" "http://www.w3.org/Graphics/SVG/1.1/DTD/svg11.dtd">
<svg version="1.1" id="Layer_1" xmlns="http://www.w3.org/2000/svg" xmlns:xlink="http://www.w3.org/1999/xlink" x="0px" y="0px"
	 width="300px" height="100px" viewBox="0 0 300 100" enable-background="new 0 0 300 100" xml:space="preserve">
<g>
	<path fill="#F16522" d="M2.004,3.96h5.803v20.7c-2.566,0.986-4.5,2.474-5.803,4.464V3.96z M29.901,15.371v6.445L8.56,32.166
		c-0.502,0.539-0.753,1.069-0.753,1.589v10.266h-5.58c-0.148,0-0.223-0.074-0.223-0.223v-9.093c0-4.017,1.73-6.799,5.189-8.342
		L29.901,15.371z M24.183,3.96h5.719v9.932l-5.719,2.845V3.96z M29.901,23.182v20.839h-5.719V25.944L29.901,23.182z"/>
	<path fill="#231F20" d="M45.719,3.989h7.393c4.222,0,7.104,1.302,8.648,3.905c1.06,1.321,1.59,3.153,1.59,5.497v21.314
		c0,4.518-2.185,7.541-6.556,9.065c-0.837,0.149-1.507,0.223-2.009,0.223H43.711c-2.809,0-5.199-1.515-7.17-4.546
		c-0.707-1.34-1.06-2.707-1.06-4.101V12.86c0-3.887,1.971-6.667,5.914-8.341C42.251,4.166,43.692,3.989,45.719,3.989z
		 M41.144,34.815c0,1.636,0.669,2.725,2.009,3.264c0.279,0.129,0.669,0.195,1.171,0.195h9.904c1.451,0,2.473-0.595,3.068-1.785
		c0.149-0.447,0.224-0.763,0.224-0.949v-23.1c0-1.171-0.809-2.055-2.427-2.65h-10.88c-1.786,0-2.809,1.06-3.069,3.181V34.815z"/>
	<path fill="#231F20" d="M68.957,4.017l17.66,9.178c2.361,1.729,3.542,3.98,3.542,6.751v24.02h-5.328V20.365
		c-0.056-1.451-1.079-2.576-3.069-3.376L68.957,10.35V4.017z M68.957,11.772l5.58,2.734v29.459h-5.58V11.772z M105.168,3.989v6.473
		l-14.116,7.281c-0.205-1.749-1.163-3.367-2.874-4.854L105.168,3.989z M105.196,11.828v32.138h-5.524l-0.027-29.348L105.196,11.828z
		"/>
	<path fill="#231F20" d="M119.703,3.96h18.97v5.747h-18.831c-2.214,0.206-3.32,1.303-3.32,3.293v11.828
		c-2.083,0.8-3.999,2.296-5.747,4.492V12.582c0-3.385,1.739-6.017,5.217-7.896C117.164,4.203,118.401,3.96,119.703,3.96z
		 M138.646,15.399v6.193L117.164,32.22c-0.484,0.614-0.726,1.284-0.726,2.01v0.613c0,1.6,0.632,2.651,1.897,3.153
		c0.242,0.13,1.209,0.186,2.901,0.167h17.465v5.83h-18.552c-2.752-0.018-4.929-0.791-6.528-2.315
		c-1.897-1.804-2.846-3.905-2.846-6.306v-1.561c0-3.497,2.102-6.166,6.305-8.007L138.646,15.399z"/>
	<path fill="#1B75BB" d="M166.654,3.989h11.074c3.497,0,6.138,1.822,7.924,5.468c0.428,1.078,0.642,2.353,0.642,3.822v6.612
		c-3.758,1.767-5.691,2.65-5.804,2.65V12.414c0-1.209-0.744-2.084-2.23-2.623c-0.279-0.074-0.56-0.112-0.838-0.112h-10.126
		c-1.898,0-2.958,1.088-3.181,3.264v17.604c-2.046,0.706-3.943,2.175-5.691,4.407V12.637c0-3.664,1.897-6.37,5.691-8.118
		C165.027,4.166,165.872,3.989,166.654,3.989z M186.294,21.285v6.193l-17.716,8.538c-2.919,1.301-4.379,2.361-4.379,3.179
		c-0.056,0.354-0.084,0.689-0.084,1.004v3.767h-5.691v-4.353c0-3.793,2.538-6.676,7.616-8.647L186.294,21.285z M186.294,28.957
		v15.009h-5.804V31.803L186.294,28.957z"/>
	<path fill="#231F20" d="M214.805,3.96v23.239c0,4.036-1.813,6.844-5.441,8.425L191.9,43.966v-6.221l10.044-4.882
		c3.272-1.47,5.244-2.464,5.914-2.985c0.669-0.521,1.032-1.098,1.087-1.73V3.96H214.805z M191.9,3.96h5.746v29.46l-5.746,2.845V3.96
		z M230.985,37.745v6.221l-18.33-8.955c0.708-0.502,1.424-1.367,2.149-2.594c0.427-0.744,0.744-1.47,0.948-2.177L230.985,37.745z
		 M225.127,3.96h5.858v32.305l-5.858-2.733V3.96z"/>
	<path fill="#231F20" d="M244.794,3.989h11.076c3.494,0,6.137,1.822,7.922,5.468c0.429,1.078,0.641,2.353,0.641,3.822v6.612
		c-3.756,1.767-5.69,2.65-5.803,2.65V12.414c0-1.209-0.743-2.084-2.229-2.623c-0.28-0.074-0.559-0.112-0.838-0.112h-10.127
		c-1.897,0-2.956,1.088-3.18,3.264v17.604c-2.048,0.706-3.944,2.175-5.692,4.407V12.637c0-3.664,1.896-6.37,5.692-8.118
		C243.166,4.166,244.014,3.989,244.794,3.989z M264.433,21.285v6.193l-17.715,8.538c-2.918,1.301-4.38,2.361-4.38,3.179
		c-0.056,0.354-0.082,0.689-0.082,1.004v3.767h-5.692v-4.353c0-3.793,2.54-6.676,7.616-8.647L264.433,21.285z M264.433,28.957
		v15.009h-5.803V31.803L264.433,28.957z"/>
	<path fill="#231F20" d="M275.732,3.96v12.359c0.074,1.228,1.851,2.632,5.328,4.213l12.329,6.137
		c3.032,1.767,4.548,4.305,4.548,7.616v0.725c0,4.315-2.222,7.234-6.668,8.759c-0.706,0.149-1.338,0.223-1.896,0.223h-11.103
		c-2.808,0-5.198-1.515-7.17-4.546c-0.706-1.358-1.06-2.735-1.06-4.129v-2.734h5.691v2.232c0,1.636,0.669,2.725,2.008,3.264
		c0.279,0.129,0.671,0.195,1.173,0.195h9.931c1.451,0,2.474-0.595,3.069-1.785c0.128-0.466,0.194-0.782,0.194-0.949v-1.786
		c-0.148-0.948-1.376-1.971-3.683-3.067l-13.948-6.752c-2.958-1.767-4.436-4.203-4.436-7.309V3.96H275.732z M292.107,3.96h5.83
		v25.248c-1.432-2.288-3.374-3.84-5.83-4.659V3.96z"/>
	<path fill="#929497" d="M2.004,56.649h5.929v20.7c-2.623,0.985-4.599,2.474-5.929,4.463V56.649z M30.507,68.063v6.441L8.703,84.856
		c-0.513,0.539-0.77,1.067-0.77,1.587V96.71h-5.7c-0.152,0-0.229-0.074-0.229-0.224v-9.095c0-4.017,1.767-6.794,5.302-8.338
		L30.507,68.063z M24.665,56.649h5.842v9.932l-5.842,2.846V56.649z M30.507,75.874V96.71h-5.842V78.633L30.507,75.874z"/>
	<path fill="#929497" d="M53.966,56.681h7.552c4.315,0,7.259,1.302,8.838,3.905c1.082,1.32,1.624,3.149,1.624,5.493v21.313
		c0,4.521-2.233,7.545-6.698,9.07c-0.855,0.148-1.539,0.223-2.052,0.223H51.914c-2.871,0-5.312-1.518-7.327-4.55
		c-0.722-1.339-1.083-2.702-1.083-4.099V65.552c0-3.887,2.016-6.671,6.043-8.344C50.421,56.854,51.894,56.681,53.966,56.681z
		 M49.292,87.504c0,1.636,0.684,2.728,2.052,3.268c0.285,0.129,0.684,0.192,1.196,0.192h10.12c1.481,0,2.528-0.596,3.135-1.786
		c0.151-0.446,0.228-0.762,0.228-0.949V65.13c0-1.172-0.827-2.052-2.48-2.647H52.427c-1.824,0-2.87,1.061-3.135,3.182V87.504z"/>
	<path fill="#929497" d="M85.006,56.649h5.813v31.134c0,1.432,0.713,2.418,2.139,2.957l0.655,0.111h19.866v5.803H94.583
		c-6.1-0.521-9.293-3.366-9.576-8.537V56.649z"/>
	<path fill="#929497" d="M126.506,56.649h5.7v40.005h-5.7V56.649z"/>
	<path fill="#929497" d="M145.261,56.649h19.525c3.458,0,6.12,1.581,7.98,4.742c0.645,1.229,0.969,2.493,0.969,3.795v22.708
		c0,3.961-2.156,6.77-6.47,8.426c-1.159,0.223-2.204,0.334-3.135,0.334h-18.87V56.649z M151.161,62.595v28.288h13.824
		c1.559,0,2.48-1.055,2.765-3.156V65.942c-0.209-2.157-1.387-3.272-3.534-3.348H151.161z"/>
	<path fill="#929497" d="M195.17,56.681h11.315c3.573,0,6.273,1.823,8.096,5.468c0.438,1.078,0.657,2.35,0.657,3.818v6.615
		c-3.84,1.767-5.816,2.646-5.93,2.646V65.105c0-1.209-0.761-2.083-2.282-2.623c-0.281-0.074-0.566-0.111-0.852-0.111h-10.346
		c-1.941,0-3.026,1.086-3.253,3.261v17.607c-2.09,0.706-4.026,2.176-5.815,4.407V65.328c0-3.663,1.938-6.372,5.815-8.12
		C193.509,56.854,194.37,56.681,195.17,56.681z M215.238,73.977v6.193l-18.102,8.536c-2.983,1.303-4.477,2.362-4.477,3.181
		c-0.055,0.353-0.084,0.688-0.084,1.005v3.763h-5.815v-4.353c0-3.794,2.595-6.676,7.784-8.647L215.238,73.977z M215.238,81.646
		v15.009h-5.93V84.491L215.238,81.646z"/>
	<path fill="#929497" d="M234.077,56.649v12.361c0.076,1.228,1.891,2.629,5.444,4.21l12.596,6.137c3.102,1.767,4.65,4.31,4.65,7.62
		v0.725c0,4.315-2.272,7.234-6.813,8.76c-0.724,0.148-1.369,0.223-1.939,0.223H236.67c-2.868,0-5.312-1.518-7.322-4.55
		c-0.725-1.357-1.084-2.734-1.084-4.128v-2.735h5.813v2.232c0,1.636,0.683,2.728,2.053,3.268c0.285,0.129,0.683,0.192,1.196,0.192
		h10.148c1.482,0,2.527-0.596,3.134-1.786c0.133-0.465,0.202-0.781,0.202-0.949v-1.785c-0.155-0.948-1.407-1.971-3.764-3.068
		l-14.252-6.751c-3.022-1.767-4.531-4.204-4.531-7.309V56.649H234.077z M250.811,56.649h5.957V81.9
		c-1.463-2.288-3.453-3.844-5.957-4.662V56.649z"/>
	<path fill="#929497" d="M280.225,56.681h7.581c4.429,0,7.41,1.363,8.947,4.098c1.012,1.303,1.514,3.106,1.514,5.412v2.009h-5.927
		v-2.957c-0.421-1.842-1.361-2.76-2.824-2.76h-10.802c-1.538,0-2.548,0.77-3.023,2.313c-0.055,0.372-0.082,0.726-0.082,1.061v3.603
		l-5.848-2.653v-1.477c0-3.645,1.978-6.354,5.93-8.12C276.698,56.854,278.212,56.681,280.225,56.681z M269.761,68.199l22.92,10.768
		c1.975,1.098,3.392,2.229,4.247,3.392c0.856,1.162,1.284,2.871,1.284,5.121c0,4.221-2.053,7.141-6.156,8.76
		c-0.8,0.278-1.655,0.415-2.567,0.415h-11.004c-3.723,0-6.487-1.972-8.294-5.914c-0.287-0.948-0.43-1.822-0.43-2.623v-2.846h5.816
		v2.319c0,1.637,0.762,2.722,2.281,3.261c0.377,0.074,4.076,0.112,11.087,0.112c1.482,0,2.521-0.596,3.11-1.786
		c0.148-0.465,0.225-0.781,0.225-0.949v-1.896c-0.267-0.967-2.202-2.27-5.814-3.905l-16.705-7.979V68.199z"/>
	<g>
		<path fill="#6397D0" d="M297.315,2.296c0.955,0.511,1.44,0.012,0.518-0.564"/>
	</g>
	<polygon fill="#D2E074" points="7.933,77.35 7.933,56.649 2.004,56.649 2.004,43.993 7.807,43.993 7.807,33.755 24.183,25.944 
		24.183,44.021 29.901,44.021 30.507,56.649 24.665,56.649 24.665,69.427 	"/>
	<g>
		<path fill="#90A93C" d="M2.853,52.167h3.049v0.694H2v-6.434h0.853V52.167z"/>
		<path fill="#90A93C" d="M8.725,52.95c-0.648,0-1.175-0.213-1.582-0.64c-0.406-0.426-0.61-0.994-0.61-1.707v-0.15
			c0-0.475,0.091-0.898,0.272-1.27c0.181-0.373,0.434-0.665,0.76-0.875c0.325-0.21,0.678-0.316,1.058-0.316
			c0.621,0,1.104,0.205,1.449,0.614c0.345,0.41,0.517,0.996,0.517,1.759v0.34H7.351c0.012,0.472,0.15,0.853,0.414,1.142
			c0.264,0.291,0.598,0.436,1.005,0.436c0.289,0,0.534-0.059,0.733-0.177c0.2-0.117,0.376-0.273,0.526-0.468l0.499,0.389
			C10.127,52.642,9.526,52.95,8.725,52.95z M8.624,48.664c-0.33,0-0.607,0.12-0.831,0.359c-0.224,0.241-0.362,0.577-0.416,1.01
			h2.395v-0.062c-0.024-0.416-0.136-0.737-0.336-0.966C9.236,48.778,8.965,48.664,8.624,48.664z"/>
		<path fill="#90A93C" d="M11.54,46.812c0-0.132,0.041-0.245,0.122-0.336c0.081-0.091,0.201-0.137,0.36-0.137
			s0.28,0.046,0.362,0.137c0.083,0.091,0.124,0.204,0.124,0.336c0,0.133-0.041,0.243-0.124,0.332
			c-0.083,0.088-0.203,0.133-0.362,0.133s-0.279-0.045-0.36-0.133C11.581,47.055,11.54,46.945,11.54,46.812z M12.423,52.861h-0.817
			V48.08h0.817V52.861z"/>
		<path fill="#90A93C" d="M16.515,51.593c0-0.221-0.083-0.393-0.25-0.515c-0.167-0.121-0.457-0.227-0.871-0.316
			c-0.414-0.088-0.743-0.193-0.985-0.317c-0.243-0.124-0.423-0.271-0.54-0.442c-0.116-0.17-0.174-0.374-0.174-0.61
			c0-0.391,0.166-0.723,0.497-0.994c0.332-0.271,0.755-0.407,1.271-0.407c0.542,0,0.981,0.14,1.318,0.42
			c0.337,0.279,0.506,0.637,0.506,1.073h-0.822c0-0.224-0.095-0.417-0.285-0.579c-0.189-0.163-0.429-0.243-0.717-0.243
			c-0.298,0-0.531,0.064-0.699,0.194c-0.167,0.13-0.251,0.299-0.251,0.508c0,0.198,0.078,0.347,0.234,0.447
			c0.156,0.1,0.438,0.196,0.846,0.287c0.408,0.092,0.738,0.201,0.992,0.327c0.254,0.126,0.441,0.278,0.564,0.457
			c0.122,0.179,0.183,0.396,0.183,0.651c0,0.428-0.171,0.77-0.512,1.027c-0.342,0.259-0.786,0.388-1.33,0.388
			c-0.383,0-0.722-0.068-1.017-0.204c-0.294-0.135-0.525-0.324-0.691-0.567s-0.25-0.507-0.25-0.788h0.818
			c0.015,0.272,0.125,0.49,0.329,0.65c0.205,0.161,0.475,0.241,0.811,0.241c0.309,0,0.557-0.063,0.745-0.188
			C16.421,51.97,16.515,51.803,16.515,51.593z"/>
		<path fill="#90A93C" d="M21.349,52.389c-0.318,0.374-0.785,0.562-1.401,0.562c-0.509,0-0.897-0.148-1.164-0.444
			c-0.267-0.296-0.401-0.734-0.404-1.315v-3.11h0.817v3.089c0,0.725,0.294,1.088,0.884,1.088c0.625,0,1.04-0.234,1.246-0.699V48.08
			h0.817v4.781h-0.778L21.349,52.389z"/>
		<path fill="#90A93C" d="M25.697,48.814c-0.124-0.021-0.258-0.032-0.402-0.032c-0.536,0-0.9,0.229-1.092,0.686v3.394h-0.817V48.08
			h0.796l0.013,0.553c0.268-0.428,0.648-0.641,1.14-0.641c0.159,0,0.28,0.021,0.362,0.063V48.814z"/>
		<path fill="#90A93C" d="M28.348,52.95c-0.647,0-1.175-0.213-1.581-0.64c-0.407-0.426-0.61-0.994-0.61-1.707v-0.15
			c0-0.475,0.091-0.898,0.272-1.27c0.181-0.373,0.435-0.665,0.76-0.875s0.678-0.316,1.059-0.316c0.622,0,1.104,0.205,1.449,0.614
			c0.345,0.41,0.517,0.996,0.517,1.759v0.34h-3.239c0.012,0.472,0.15,0.853,0.414,1.142c0.264,0.291,0.598,0.436,1.005,0.436
			c0.289,0,0.533-0.059,0.733-0.177c0.201-0.117,0.376-0.273,0.526-0.468l0.5,0.389C29.75,52.642,29.149,52.95,28.348,52.95z
			 M28.247,48.664c-0.33,0-0.607,0.12-0.831,0.359c-0.225,0.241-0.363,0.577-0.416,1.01h2.395v-0.062
			c-0.023-0.416-0.136-0.737-0.336-0.966C28.859,48.778,28.588,48.664,28.247,48.664z"/>
	</g>
</g>
</svg>
