<?xml version="1.0" encoding="utf-8"?>
<!-- Generator: Adobe Illustrator 26.0.1, SVG Export Plug-In . SVG Version: 6.00 Build 0)  -->
<svg version="1.1" id="Layer_1" xmlns="http://www.w3.org/2000/svg" xmlns:xlink="http://www.w3.org/1999/xlink" x="0px" y="0px"
	 width="100.6px" height="50px" viewBox="0 0 100.6 50" style="enable-background:new 0 0 100.6 50;" xml:space="preserve">
<style type="text/css">
	.st0{fill:#21A485;}
	.st1{fill:none;}
	.st2{fill:#231F20;}
	.st3{fill:#367CBF;}
	.st4{fill:#BB1F61;}
	.st5{fill:#F6D465;}
</style>
<g>
	<polygon class="st0" points="30.2,9.4 21.9,9.4 21.2,13.3 25.2,15.7 30.2,16.6 	"/>
	<rect x="3.6" y="5" class="st1" width="93.3" height="40"/>
	<rect x="83.6" y="13.9" class="st2" width="13.3" height="4.5"/>
	<rect x="83.6" y="22.7" class="st2" width="13.3" height="4.5"/>
	<rect x="56.9" y="22.7" class="st2" width="13.3" height="4.5"/>
	<rect x="3.6" y="22.7" class="st2" width="31" height="4.5"/>
	<rect x="74.7" y="31.7" class="st2" width="13.3" height="4.5"/>
	<rect x="30.2" y="31.7" class="st2" width="13.3" height="4.5"/>
	<rect x="3.6" y="31.7" class="st2" width="22.2" height="4.5"/>
	<rect x="65.8" y="31.7" class="st2" width="4.5" height="4.5"/>
	<rect x="65.8" y="40.5" class="st2" width="31.1" height="4.5"/>
	<rect x="3.6" y="40.5" class="st2" width="57.7" height="4.5"/>
	<rect x="92.5" y="13.9" class="st2" width="4.5" height="31.1"/>
	<rect x="3.6" y="31.7" class="st2" width="4.5" height="13.3"/>
	<rect x="83.6" y="13.9" class="st2" width="4.5" height="13.3"/>
	<rect x="65.8" y="13.9" class="st2" width="4.5" height="13.3"/>
	<rect x="3.6" y="5" class="st2" width="4.5" height="22.2"/>
	<rect x="30.2" y="5" class="st2" width="4.5" height="22.2"/>
	<rect x="74.7" y="5" class="st2" width="4.5" height="31.1"/>
	<rect x="56.9" y="5" class="st2" width="4.5" height="40"/>
	<rect x="48" y="5" class="st2" width="4.5" height="31.1"/>
	<rect x="39.1" y="13.9" class="st2" width="4.5" height="22.2"/>
	<rect x="12.5" y="5" class="st2" width="4.5" height="4.4"/>
	<rect x="21.4" y="5" class="st2" width="4.5" height="4.4"/>
	<path class="st3" d="M25,15.9c-1.7-0.9-3.7-1.8-4.7-3.5c-1-1.7,0.5-2.8,1.5-3v0H9.9c0,0.1,0.1,0.9,0.1,1.4c0,0.6,0.1,1.8-1.1,2.9
		c0,0.5,0.1,1,0.1,1c0,0.1,0,0.5,0,0.6c0,0-0.1,0.2-0.1,0.2c0,0.1,0.8,3.4,3.6,5.1c2.5,1.5,5,0.5,5.8-2.5l1.9-0.4l0,0
		c0.6,0.6,3.2,3.2,6.3,2.5c0.7-0.4,2.2-1.3,2.2-3.6C28.7,16.7,26.7,16.8,25,15.9z"/>
	<path class="st4" d="M13.7,22.7c0,0-2.2-0.3-3.7-2.8c-0.7-1.1-1-1.8-1.2-2.4l0.1-3.7l0.1-0.3l0.6-0.8l0.3-1.1l-0.7-1c0,0,0,0,0-0.1
		c0.2-0.3,0.6-1,0.6-1.2H8.1v1.2l0,0v5.2l0,0v6.9H13.7z"/>
	<path class="st5" d="M30.2,18.5v4.2H16.3c3.1-0.9,3.6-4.4,3.6-4.4c0.2,0.3,1.4,1.7,4,3.1c2.6,1.2,4.2,0.1,5-0.7
		C29.8,20.1,30.2,18.5,30.2,18.5z"/>
	<path class="st2" d="M30.2,9.4"/>
	<path class="st2" d="M27.1,11C25.7,9.8,24,9.4,24,9.4s-1.3,0-2.2,0c-1,0.2-2.6,1.3-1.5,3c1,1.7,3,2.6,4.7,3.5
		c1.7,0.9,3.7,0.8,3.7,0.8c0,2.3-1.4,3.2-2.2,3.6c-3.6,0.8-6.4-2.6-6.4-2.6c-0.2-2.7-1.2-3.3-1.4-3.5c-0.5-0.2-1.4-0.4-1.2,0.7
		c0.2,1.1,1.1,2.2,1.1,2.2c-0.4,3.8-3.2,5.3-6,3.6c-2.8-1.7-3.6-5-3.6-5.1c0,0,0.1-0.2,0.1-0.2c0,0,0-0.5,0-0.6c0-0.1,0-0.5-0.1-1
		c1.2-1,1.1-2.3,1.1-2.9c0-0.6-0.1-1.4-0.1-1.4H9.8c0,0.2-0.4,0.9-0.6,1.2c-0.2,0.3-0.7,0.6-0.8,0.8c-0.2,0.2-0.3,0.5-0.3,0.5
		c0,0,0,0,0,0s0,1,0,1.2l0,0c0,0,0.1,0.4,0.1,0.4c0,0,0.3,0.1,0.3,0.1c0.8-0.7,0.9-1.3,1-1.3c-0.1,0.7-0.8,1.3-0.9,1.4
		c0,0,0.1,0,0.1,0.1c-0.2,0-0.5-0.1-0.6-0.1c-0.1,0.1-0.1,0.4-0.1,0.4c0,0,0,0,0,0v1.3l0,0l0.2,0.3v0c0.3,1.5,0.2,2.1,1.6,4.4
		c1.6,2.5,3.7,2.8,3.7,2.8h2.7c3.1-0.9,3.6-4.4,3.6-4.4c0.2,0.3,1.4,1.7,4,3.1c2.6,1.2,4.2,0.1,5-0.7c0.9-0.7,1.2-2.3,1.2-2.3
		s0-1.2,0-2.9C29.9,13.8,28.5,12.3,27.1,11z M25.2,15.2c-1.1-0.4-2.2-1.5-2.7-2c-0.5-0.5-0.7-1.4-0.3-1.8c0.8-0.8,2.1-0.3,4,1
		c2.4,1.9,2.6,3.9,2.6,3.9C27.9,16.2,26.3,15.6,25.2,15.2z M18.2,15.5c-0.1-0.2-0.2-0.6-0.2-0.7c0.1,0,0.1,0.2,0.2,0.2
		c0.1,0.1,0.3,0.7,0.4,0.9c0.1,0.2,0.1,0.3,0.1,0.3C18.5,16.2,18.3,15.7,18.2,15.5z"/>
</g>
</svg>
